<?xml version="1.0" encoding="utf-8" standalone="no"?>
<!DOCTYPE svg PUBLIC "-//W3C//DTD SVG 1.1//EN"
  "http://www.w3.org/Graphics/SVG/1.1/DTD/svg11.dtd">
<svg xmlns:xlink="http://www.w3.org/1999/xlink" width="502.56pt" height="311.04pt" viewBox="0 0 502.56 311.04" xmlns="http://www.w3.org/2000/svg" version="1.1" xmlns:c2pa="http://c2pa.org/manifest">
 <metadata><c2pa:manifest>AAAWgmp1bWIAAAAeanVtZGMycGEAEQAQgAAAqgA4m3EDYzJwYQAAABZcanVtYgAAAEdqdW1kYzJtYQARABCAAACqADibcQN1cm46YzJwYTo1MTVhYzdjOC1mZmMzLTQyNTgtOTc5YS0zODcyMTBkNWY4NWYAAAADl2p1bWIAAAApanVtZGMyYXMAEQAQgAAAqgA4m3EDYzJwYS5hc3NlcnRpb25zAAAAALxqdW1iAAAARGp1bWRjYm9yABEAEIAAAKoAOJtxE2MycGEuaW5ncmVkaWVudC52MwAAAAAYYzJzaEOGeHluKXTUlEYRWETn8dMAAABwY2JvcqNpZGM6Zm9ybWF0bWltYWdlL3N2Zyt4bWxqaW5zdGFuY2VJRHgseG1wOmlpZDo0M2RlMjVmNS02ZWNlLTRjMjEtOWQ2OS1kNTc1NjAyOWFlMjVscmVsYXRpb25zaGlwaHBhcmVudE9mAAAB4mp1bWIAAABBanVtZGNib3IAEQAQgAAAqgA4m3ETYzJwYS5hY3Rpb25zLnYyAAAAABhjMnNoc+1zG/1aT0foFiysPPMhQQAAAZljYm9yomdhY3Rpb25zgqJmYWN0aW9ua2MycGEub3BlbmVkanBhcmFtZXRlcnOha2luZ3JlZGllbnRzgaJjdXJseC1zZWxmI2p1bWJmPWMycGEuYXNzZXJ0aW9ucy9jMnBhLmluZ3JlZGllbnQudjNkaGFzaFgg/kCbXnBRCeMQh2QPP1aVoGY96+xfBlFngHkLHIHQT/mkZmFjdGlvbngdY29tLmFudGhyb3BpYy5jbGF1ZGUucHJvdmlkZWRqcGFyYW1ldGVyc6F4H2NvbS5hbnRocm9waWMub3JpZ2luLWNvbmZpZGVuY2VndW5rbm93bmtkZXNjcmlwdGlvbnhmQ2xhdWRlIHByb3ZpZGVkIHRoaXMgZmlsZSBhdCB0aGUgcmVxdWVzdCBvZiBhIHVzZXIgYW5kIG1heSBoYXZlIGNyZWF0ZWQgb3IgbW9kaWZpZWQgdGhlIGZpbGUgY29udGVudHMubXNvZnR3YXJlQWdlbnShZG5hbWVmQ2xhdWRlcmFsbEFjdGlvbnNJbmNsdWRlZPUAAADIanVtYgAAAEBqdW1kY2JvcgARABCAAACqADibcRNjMnBhLmhhc2guZGF0YQAAAAAYYzJzaMJGyMbqPbPHzZN5BrBX7pIAAACAY2JvcqVjYWxnZnNoYTI1NmNwYWRMAAAAAAAAAAAAAAAAZGhhc2hYIMpBu+60BhZcYabmr21e0KNWKqoX30x37o0tFWpOly8qZG5hbWVuanVtYmYgbWFuaWZlc3RqZXhjbHVzaW9uc4GiZXN0YXJ0GQF9Zmxlbmd0aBkeBAAAAj5qdW1iAAAAJ2p1bWRjMmNsABEAEIAAAKoAOJtxA2MycGEuY2xhaW0udjIAAAACD2Nib3KlY2FsZ2ZzaGEyNTZpc2lnbmF0dXJleE1zZWxmI2p1bWJmPS9jMnBhL3VybjpjMnBhOjUxNWFjN2M4LWZmYzMtNDI1OC05NzlhLTM4NzIxMGQ1Zjg1Zi9jMnBhLnNpZ25hdHVyZWppbnN0YW5jZUlEeCx4bXA6aWlkOjJiOTMwZTEyLWE0ZDAtNGM1Yy1iNGFkLTU4YTc5ZjhmNGE4ZXJjcmVhdGVkX2Fzc2VydGlvbnODomN1cmx4LXNlbGYjanVtYmY9YzJwYS5hc3NlcnRpb25zL2MycGEuaW5ncmVkaWVudC52M2RoYXNoWCD+QJtecFEJ4xCHZA8/VpWgZj3r7F8GUWeAeQscgdBP+aJjdXJseCpzZWxmI2p1bWJmPWMycGEuYXNzZXJ0aW9ucy9jMnBhLmFjdGlvbnMudjJkaGFzaFgg3fJ6aiFrZ57d25Se6tqRPnK3kVnfThDreUFMEJNVjCyiY3VybHgpc2VsZiNqdW1iZj1jMnBhLmFzc2VydGlvbnMvYzJwYS5oYXNoLmRhdGFkaGFzaFgg8RlOkKpQ3XKMqgwnKh2nai0Y68CbRxx0m3NFtqqoZF50Y2xhaW1fZ2VuZXJhdG9yX2luZm+jZG5hbWVvQW50aHJvcGljIEZpbGVzZ3ZlcnNpb25lMS4wLjBrc3BlY1ZlcnNpb25lMi40LjAAABA4anVtYgAAAChqdW1kYzJjcwARABCAAACqADibcQNjMnBhLnNpZ25hdHVyZQAAABAIY2JvctKEWQISogEmGCFZAgowggIGMIIBjaADAgECAhRA5aAK7sI50L64g/oGQgU9Z1UTADAKBggqhkjOPQQDAzBJMRcwFQYDVQQKEw5BbnRocm9waWMsIFBCQzEuMCwGA1UEAxMlQW50aHJvcGljIENvbnRlbnQgQ3JlZGVudGlhbHMgUm9vdCBDQTAeFw0yNjA4MDcxODQzNTZaFw0yODA4MDYxOTQzNTZaMEQxFzAVBgNVBAoTDkFudGhyb3BpYywgUEJDMSkwJwYDVQQDEyBBbnRocm9waWMgQ2xhdWRlIENvbnRlbnQgU2lnbmluZzBZMBMGByqGSM49AgEGCCqGSM49AwEHA0IABJh6CmvLUBgFFNU0vUKlOVtE6djd17L5SuwX0LemFisBM3dkd/3cyjxFA3Qo5S46fX0/ihY0VZ7mfb9KF703t5OjWDBWMA4GA1UdDwEB/wQEAwIHgDAVBgNVHSUEDjAMBgorBgEEAYPoXgIBMAwGA1UdEwEB/wQCMAAwHwYDVR0jBBgwFoAUzlHiBIFOZFsj+OPEz5o+nMHXXMIwCgYIKoZIzj0EAwMDZwAwZAIwMXMdFJ4BetLLVY7ORuE9noqbbAZOZn/aArXyTwFAZfKrPzxF2vPoJNf1+UCdg1XGAjBwX1zd9WGqYkqmL5SFqw1QySjr1zJfpJM9+1rdDwSPLMOPOjKuiXjoU/pUUeG9RwmhY3BhZFkNngAAAAAAAAAAAAAAAAAAAAAAAAAAAAAAAAAAAAAAAAAAAAAAAAAAAAAAAAAAAAAAAAAAAAAAAAAAAAAAAAAAAAAAAAAAAAAAAAAAAAAAAAAAAAAAAAAAAAAAAAAAAAAAAAAAAAAAAAAAAAAAAAAAAAAAAAAAAAAAAAAAAAAAAAAAAAAAAAAAAAAAAAAAAAAAAAAAAAAAAAAAAAAAAAAAAAAAAAAAAAAAAAAAAAAAAAAAAAAAAAAAAAAAAAAAAAAAAAAAAAAAAAAAAAAAAAAAAAAAAAAAAAAAAAAAAAAAAAAAAAAAAAAAAAAAAAAAAAAAAAAAAAAAAAAAAAAAAAAAAAAAAAAAAAAAAAAAAAAAAAAAAAAAAAAAAAAAAAAAAAAAAAAAAAAAAAAAAAAAAAAAAAAAAAAAAAAAAAAAAAAAAAAAAAAAAAAAAAAAAAAAAAAAAAAAAAAAAAAAAAAAAAAAAAAAAAAAAAAAAAAAAAAAAAAAAAAAAAAAAAAAAAAAAAAAAAAAAAAAAAAAAAAAAAAAAAAAAAAAAAAAAAAAAAAAAAAAAAAAAAAAAAAAAAAAAAAAAAAAAAAAAAAAAAAAAAAAAAAAAAAAAAAAAAAAAAAAAAAAAAAAAAAAAAAAAAAAAAAAAAAAAAAAAAAAAAAAAAAAAAAAAAAAAAAAAAAAAAAAAAAAAAAAAAAAAAAAAAAAAAAAAAAAAAAAAAAAAAAAAAAAAAAAAAAAAAAAAAAAAAAAAAAAAAAAAAAAAAAAAAAAAAAAAAAAAAAAAAAAAAAAAAAAAAAAAAAAAAAAAAAAAAAAAAAAAAAAAAAAAAAAAAAAAAAAAAAAAAAAAAAAAAAAAAAAAAAAAAAAAAAAAAAAAAAAAAAAAAAAAAAAAAAAAAAAAAAAAAAAAAAAAAAAAAAAAAAAAAAAAAAAAAAAAAAAAAAAAAAAAAAAAAAAAAAAAAAAAAAAAAAAAAAAAAAAAAAAAAAAAAAAAAAAAAAAAAAAAAAAAAAAAAAAAAAAAAAAAAAAAAAAAAAAAAAAAAAAAAAAAAAAAAAAAAAAAAAAAAAAAAAAAAAAAAAAAAAAAAAAAAAAAAAAAAAAAAAAAAAAAAAAAAAAAAAAAAAAAAAAAAAAAAAAAAAAAAAAAAAAAAAAAAAAAAAAAAAAAAAAAAAAAAAAAAAAAAAAAAAAAAAAAAAAAAAAAAAAAAAAAAAAAAAAAAAAAAAAAAAAAAAAAAAAAAAAAAAAAAAAAAAAAAAAAAAAAAAAAAAAAAAAAAAAAAAAAAAAAAAAAAAAAAAAAAAAAAAAAAAAAAAAAAAAAAAAAAAAAAAAAAAAAAAAAAAAAAAAAAAAAAAAAAAAAAAAAAAAAAAAAAAAAAAAAAAAAAAAAAAAAAAAAAAAAAAAAAAAAAAAAAAAAAAAAAAAAAAAAAAAAAAAAAAAAAAAAAAAAAAAAAAAAAAAAAAAAAAAAAAAAAAAAAAAAAAAAAAAAAAAAAAAAAAAAAAAAAAAAAAAAAAAAAAAAAAAAAAAAAAAAAAAAAAAAAAAAAAAAAAAAAAAAAAAAAAAAAAAAAAAAAAAAAAAAAAAAAAAAAAAAAAAAAAAAAAAAAAAAAAAAAAAAAAAAAAAAAAAAAAAAAAAAAAAAAAAAAAAAAAAAAAAAAAAAAAAAAAAAAAAAAAAAAAAAAAAAAAAAAAAAAAAAAAAAAAAAAAAAAAAAAAAAAAAAAAAAAAAAAAAAAAAAAAAAAAAAAAAAAAAAAAAAAAAAAAAAAAAAAAAAAAAAAAAAAAAAAAAAAAAAAAAAAAAAAAAAAAAAAAAAAAAAAAAAAAAAAAAAAAAAAAAAAAAAAAAAAAAAAAAAAAAAAAAAAAAAAAAAAAAAAAAAAAAAAAAAAAAAAAAAAAAAAAAAAAAAAAAAAAAAAAAAAAAAAAAAAAAAAAAAAAAAAAAAAAAAAAAAAAAAAAAAAAAAAAAAAAAAAAAAAAAAAAAAAAAAAAAAAAAAAAAAAAAAAAAAAAAAAAAAAAAAAAAAAAAAAAAAAAAAAAAAAAAAAAAAAAAAAAAAAAAAAAAAAAAAAAAAAAAAAAAAAAAAAAAAAAAAAAAAAAAAAAAAAAAAAAAAAAAAAAAAAAAAAAAAAAAAAAAAAAAAAAAAAAAAAAAAAAAAAAAAAAAAAAAAAAAAAAAAAAAAAAAAAAAAAAAAAAAAAAAAAAAAAAAAAAAAAAAAAAAAAAAAAAAAAAAAAAAAAAAAAAAAAAAAAAAAAAAAAAAAAAAAAAAAAAAAAAAAAAAAAAAAAAAAAAAAAAAAAAAAAAAAAAAAAAAAAAAAAAAAAAAAAAAAAAAAAAAAAAAAAAAAAAAAAAAAAAAAAAAAAAAAAAAAAAAAAAAAAAAAAAAAAAAAAAAAAAAAAAAAAAAAAAAAAAAAAAAAAAAAAAAAAAAAAAAAAAAAAAAAAAAAAAAAAAAAAAAAAAAAAAAAAAAAAAAAAAAAAAAAAAAAAAAAAAAAAAAAAAAAAAAAAAAAAAAAAAAAAAAAAAAAAAAAAAAAAAAAAAAAAAAAAAAAAAAAAAAAAAAAAAAAAAAAAAAAAAAAAAAAAAAAAAAAAAAAAAAAAAAAAAAAAAAAAAAAAAAAAAAAAAAAAAAAAAAAAAAAAAAAAAAAAAAAAAAAAAAAAAAAAAAAAAAAAAAAAAAAAAAAAAAAAAAAAAAAAAAAAAAAAAAAAAAAAAAAAAAAAAAAAAAAAAAAAAAAAAAAAAAAAAAAAAAAAAAAAAAAAAAAAAAAAAAAAAAAAAAAAAAAAAAAAAAAAAAAAAAAAAAAAAAAAAAAAAAAAAAAAAAAAAAAAAAAAAAAAAAAAAAAAAAAAAAAAAAAAAAAAAAAAAAAAAAAAAAAAAAAAAAAAAAAAAAAAAAAAAAAAAAAAAAAAAAAAAAAAAAAAAAAAAAAAAAAAAAAAAAAAAAAAAAAAAAAAAAAAAAAAAAAAAAAAAAAAAAAAAAAAAAAAAAAAAAAAAAAAAAAAAAAAAAAAAAAAAAAAAAAAAAAAAAAAAAAAAAAAAAAAAAAAAAAAAAAAAAAAAAAAAAAAAAAAAAAAAAAAAAAAAAAAAAAAAAAAAAAAAAAAAAAAAAAAAAAAAAAAAAAAAAAAAAAAAAAAAAAAAAAAAAAAAAAAAAAAAAAAAAAAAAAAAAAAAAAAAAAAAAAAAAAAAAAAAAAAAAAAAAAAAAAAAAAAAAAAAAAAAAAAAAAAAAAAAAAAAAAAAAAAAAAAAAAAAAAAAAAAAAAAAAAAAAAAAAAAAAAAAAAAAAAAAAAAAAAAAAAAAAAAAAAAAAAAAAAAAAAAAAAAAAAAAAAAAAAAAAAAAAAAAAAAAAAAAAAAAAAAAAAAAAAAAAAAAAAAAAAAAAAAAAAAAAAAAAAAAAAAAAAAAAAAAAAAAAAAAAAAAAAAAAAAAAAAAAAAAAAAAAAAAAAAAAAAAAAAAAAAAAAAAAAAAAAAAAAAAAAAAAAAAAAAAAAAAAAAAAAAAAAAAAAAAAAAAAAAAAAAAAAAAAAAAAAAAAAAAAAAAAAAAAAAAAAAAAAAAAAAAAAAAAAAAAAAAAAAAAAAAAAAAAAAAAAAAAAAAAAAAAAAAAAAAAAAAAAAAAAAAAAAAAAAAAAAAAAAAAAAAAAAAAAAAAAAAAAAAAAAAAAAAAAAAAAAAAAAAAAAAAAAAAAAAAAAAAAAAAAAAAAAAAAAAAAAAAAAAAAAAAAAAAAAAAAAAAAAAAAAAAAAAAAAAAAAAAAAAAAAAAAAAAAAAAAAAAAAAAAAAAAAAAAAAAAAAAAAAAAAAAAAAAAAAAAAAAAAAAAAAAAAAAAAAAAAAAAAAAAAAAAAAAAAAAAAAAAAAAAAAAAAAAAAAAAAAAAAAAAAAAAAAAAAAAAAAAAAAAAAAAAAAAAAAAAAAAAAAAAAAAAAAAAAAAAAAAAAAAAAAAAAAAAAAAAAAAAAAAAAAAAAAAAAAAAAAAAAAAAAAAAAAAAAAAAAAAAAAAAAAAAAAAAAAAAAAAAAAAAAAAAAAAAAAAAAAAAAAAAAAAAAAAAAAAAAAAAAAAAAAAAAAAAAAAAAAAAAAAAAAAAAAAAAAAAAAAAAAAAAAAAAAAAAAAAAAAAAAAAAAAAAAAAAAAAAAAAAAAAAAAAAAAAAAAAAAAAAAAAAAAAAAAAAAAAAAAAAAAAAAAAAAAAAAAAAAAAAAAAAAAAAAAAAAAAAAAAAAAAAAAAAAAAAAAAAAAAAAAAAAAAAAAAAAAAAAAAAAAAAAAAAAAAAAAAAAAAAAAAAAAAAAAAAAAAAAAAAAAAAAAAAAAAAAAAAAAAAAAAAAAAAAAAAAAAAAAAAAAAAAAAAAAAAAAAAAAAAAAAAAAAAAAAAAAAAAAAAAAAAAAAAAAAAAAAAAAAAAAAAAAAAAAAAAAAAAAAAAAAAAAAAAAAAAAAAAAAAAAAAAAAAAAAAAAAAAAAAAAAAAAAAAAAAAAAAAAAAAAAAAAAAAAAAAAAAAAAAAAAAAAAAAAAAAAAAAAAAAAAAAAAAAAAAAAAAAAAAAAAAAAAAAAAAAAAAAAAAAAAAAAAAAAAAAAAAAAAAAAAAAAAAAAAAAAAAAAAAAAAAAAAAAAAAAAAAAAAAAAAAAAAAAAAAAAAAAAAAAAAAAAAAAAAAAAAAAAAAAAAAAAAAAAAAAAAPZYQOjE+2xJOXeqIqYoiswdhCLeaIcaKwIxUV2snP6AT+kYdNvvspVlfujUZq+mQiOQA/DAvVkNGi5y2g7IGxZjZLU=</c2pa:manifest>
  <rdf:RDF xmlns:dc="http://purl.org/dc/elements/1.1/" xmlns:cc="http://creativecommons.org/ns#" xmlns:rdf="http://www.w3.org/1999/02/22-rdf-syntax-ns#">
   <cc:Work>
    <dc:type rdf:resource="http://purl.org/dc/dcmitype/StillImage"/>
    <dc:date>2026-09-19T16:20:03.421778</dc:date>
    <dc:format>image/svg+xml</dc:format>
    <dc:creator>
     <cc:Agent>
      <dc:title>Matplotlib v3.11.2, https://matplotlib.org/</dc:title>
     </cc:Agent>
    </dc:creator>
   </cc:Work>
  </rdf:RDF>
 </metadata>
 <defs>
  <style type="text/css">*{stroke-linejoin: round; stroke-linecap: butt}</style>
 </defs>
 <g id="figure_1">
  <g id="patch_1">
   <path d="M 0 311.04 
L 502.56 311.04 
L 502.56 0 
L 0 0 
z
" style="fill: #ffffff"/>
  </g>
  <g id="axes_1">
   <g id="patch_2">
    <path d="M 28.62125 135.468 
L 255.124375 135.468 
L 255.124375 16.144 
L 28.62125 16.144 
z
" style="fill: #ffffff"/>
   </g>
   <g id="matplotlib.axis_1">
    <g id="xtick_1">
     <g id="line2d_1">
      <defs>
       <path id="mb73183eade" d="M 0 0 
L 0 3 
" style="stroke: #6b5f52; stroke-width: 0.7"/>
      </defs>
      <g>
       <use xlink:href="#mb73183eade" x="64.922047" y="135.468" style="fill: #6b5f52; stroke: #6b5f52; stroke-width: 0.7"/>
      </g>
     </g>
     <g id="text_1">
      <!-- 1970 -->
      <g style="fill: #6b5f52" transform="translate(56.969547 150.16) scale(0.08 -0.08)">
       <defs>
        <path id="SourceSans3-Regular-536" d="M 506 0 
L 506 435 
L 1440 435 
L 1440 3443 
L 698 3443 
L 698 3782 
Q 973 3834 1184 3907 
Q 1395 3981 1562 4083 
L 1965 4083 
L 1965 435 
L 2810 435 
L 2810 0 
L 506 0 
z
" transform="scale(0.015625)"/>
        <path id="SourceSans3-Regular-53e" d="M 1312 -77 
Q 986 -77 742 48 
Q 499 173 326 352 
L 621 685 
Q 749 538 925 448 
Q 1101 358 1293 358 
Q 1587 358 1830 534 
Q 2074 710 2224 1110 
Q 2374 1510 2374 2195 
Q 2374 2701 2265 3043 
Q 2157 3386 1955 3565 
Q 1754 3744 1459 3744 
Q 1261 3744 1101 3632 
Q 941 3520 845 3318 
Q 749 3117 749 2848 
Q 749 2586 835 2390 
Q 922 2195 1088 2089 
Q 1254 1984 1504 1984 
Q 1702 1984 1939 2115 
Q 2176 2246 2381 2560 
L 2400 2144 
Q 2214 1888 1945 1737 
Q 1677 1587 1414 1587 
Q 1062 1587 800 1728 
Q 538 1869 397 2150 
Q 256 2432 256 2848 
Q 256 3238 419 3536 
Q 582 3834 857 3997 
Q 1133 4160 1459 4160 
Q 1760 4160 2019 4038 
Q 2278 3917 2467 3670 
Q 2656 3424 2761 3056 
Q 2867 2688 2867 2195 
Q 2867 1581 2739 1145 
Q 2611 710 2393 441 
Q 2176 173 1897 48 
Q 1619 -77 1312 -77 
z
" transform="scale(0.015625)"/>
        <path id="SourceSans3-Regular-53c" d="M 1094 0 
Q 1120 576 1200 1059 
Q 1280 1542 1424 1968 
Q 1568 2394 1789 2800 
Q 2010 3206 2323 3629 
L 282 3629 
L 282 4083 
L 2912 4083 
L 2912 3757 
Q 2547 3296 2307 2870 
Q 2067 2445 1929 2009 
Q 1792 1574 1728 1088 
Q 1664 602 1638 0 
L 1094 0 
z
" transform="scale(0.015625)"/>
        <path id="SourceSans3-Regular-535" d="M 1594 -77 
Q 979 -77 630 476 
Q 282 1030 282 2054 
Q 282 3085 630 3622 
Q 979 4160 1594 4160 
Q 2202 4160 2550 3619 
Q 2899 3078 2899 2054 
Q 2899 1030 2550 476 
Q 2202 -77 1594 -77 
z
M 1594 346 
Q 1830 346 2009 525 
Q 2189 704 2288 1081 
Q 2387 1459 2387 2054 
Q 2387 2656 2288 3027 
Q 2189 3398 2009 3568 
Q 1830 3738 1594 3738 
Q 1350 3738 1171 3568 
Q 992 3398 893 3027 
Q 794 2656 794 2054 
Q 794 1459 893 1081 
Q 992 704 1171 525 
Q 1350 346 1594 346 
z
" transform="scale(0.015625)"/>
       </defs>
       <use xlink:href="#SourceSans3-Regular-536"/>
       <use xlink:href="#SourceSans3-Regular-53e" transform="translate(49.703125 0)"/>
       <use xlink:href="#SourceSans3-Regular-53c" transform="translate(99.40625 0)"/>
       <use xlink:href="#SourceSans3-Regular-535" transform="translate(149.109375 0)"/>
      </g>
     </g>
    </g>
    <g id="xtick_2">
     <g id="line2d_2">
      <g>
       <use xlink:href="#mb73183eade" x="117.830678" y="135.468" style="fill: #6b5f52; stroke: #6b5f52; stroke-width: 0.7"/>
      </g>
     </g>
     <g id="text_2">
      <!-- 1980 -->
      <g style="fill: #6b5f52" transform="translate(109.878178 150.16) scale(0.08 -0.08)">
       <defs>
        <path id="SourceSans3-Regular-53d" d="M 1600 -77 
Q 1216 -77 912 67 
Q 608 211 435 467 
Q 262 723 262 1043 
Q 262 1312 374 1520 
Q 486 1728 662 1885 
Q 838 2042 1030 2144 
L 1030 2170 
Q 806 2330 633 2560 
Q 461 2790 461 3110 
Q 461 3424 614 3661 
Q 768 3898 1027 4029 
Q 1286 4160 1619 4160 
Q 2150 4160 2460 3856 
Q 2771 3552 2771 3072 
Q 2771 2861 2681 2672 
Q 2592 2483 2464 2332 
Q 2336 2182 2208 2086 
L 2208 2061 
Q 2387 1958 2550 1817 
Q 2714 1677 2816 1481 
Q 2918 1286 2918 1011 
Q 2918 710 2755 464 
Q 2592 218 2294 70 
Q 1997 -77 1600 -77 
z
M 1888 2227 
Q 2099 2413 2208 2617 
Q 2317 2822 2317 3046 
Q 2317 3245 2233 3408 
Q 2150 3571 1990 3670 
Q 1830 3770 1606 3770 
Q 1325 3770 1136 3587 
Q 947 3405 947 3110 
Q 947 2867 1078 2707 
Q 1210 2547 1424 2435 
Q 1638 2323 1888 2227 
z
M 1613 314 
Q 1850 314 2029 403 
Q 2208 493 2310 656 
Q 2413 819 2413 1030 
Q 2413 1293 2259 1459 
Q 2106 1626 1856 1744 
Q 1606 1862 1306 1984 
Q 1062 1824 899 1600 
Q 736 1376 736 1094 
Q 736 870 851 694 
Q 966 518 1164 416 
Q 1363 314 1613 314 
z
" transform="scale(0.015625)"/>
       </defs>
       <use xlink:href="#SourceSans3-Regular-536"/>
       <use xlink:href="#SourceSans3-Regular-53e" transform="translate(49.703125 0)"/>
       <use xlink:href="#SourceSans3-Regular-53d" transform="translate(99.40625 0)"/>
       <use xlink:href="#SourceSans3-Regular-535" transform="translate(149.109375 0)"/>
      </g>
     </g>
    </g>
    <g id="xtick_3">
     <g id="line2d_3">
      <g>
       <use xlink:href="#mb73183eade" x="170.753797" y="135.468" style="fill: #6b5f52; stroke: #6b5f52; stroke-width: 0.7"/>
      </g>
     </g>
     <g id="text_3">
      <!-- 1990 -->
      <g style="fill: #6b5f52" transform="translate(162.801297 150.16) scale(0.08 -0.08)">
       <use xlink:href="#SourceSans3-Regular-536"/>
       <use xlink:href="#SourceSans3-Regular-53e" transform="translate(49.703125 0)"/>
       <use xlink:href="#SourceSans3-Regular-53e" transform="translate(99.40625 0)"/>
       <use xlink:href="#SourceSans3-Regular-535" transform="translate(149.109375 0)"/>
      </g>
     </g>
    </g>
    <g id="xtick_4">
     <g id="line2d_4">
      <g>
       <use xlink:href="#mb73183eade" x="223.662428" y="135.468" style="fill: #6b5f52; stroke: #6b5f52; stroke-width: 0.7"/>
      </g>
     </g>
     <g id="text_4">
      <!-- 2000 -->
      <g style="fill: #6b5f52" transform="translate(215.709928 150.16) scale(0.08 -0.08)">
       <defs>
        <path id="SourceSans3-Regular-537" d="M 256 0 
L 256 320 
Q 864 922 1296 1386 
Q 1728 1850 1952 2227 
Q 2176 2605 2176 2931 
Q 2176 3283 1984 3507 
Q 1792 3731 1402 3731 
Q 1146 3731 928 3590 
Q 710 3450 531 3238 
L 237 3526 
Q 493 3814 784 3987 
Q 1075 4160 1466 4160 
Q 1843 4160 2118 4009 
Q 2394 3859 2541 3590 
Q 2688 3322 2688 2963 
Q 2688 2566 2467 2176 
Q 2246 1786 1862 1357 
Q 1478 928 979 416 
Q 1146 435 1325 444 
Q 1504 454 1664 454 
L 2893 454 
L 2893 0 
L 256 0 
z
" transform="scale(0.015625)"/>
       </defs>
       <use xlink:href="#SourceSans3-Regular-537"/>
       <use xlink:href="#SourceSans3-Regular-535" transform="translate(49.703125 0)"/>
       <use xlink:href="#SourceSans3-Regular-535" transform="translate(99.40625 0)"/>
       <use xlink:href="#SourceSans3-Regular-535" transform="translate(149.109375 0)"/>
      </g>
     </g>
    </g>
   </g>
   <g id="matplotlib.axis_2">
    <g id="ytick_1">
     <g id="line2d_5">
      <path d="M 28.62125 126.863728 
L 255.124375 126.863728 
" clip-path="url(#p49d38a1fc8)" style="fill: none; stroke: #e7dad0; stroke-width: 0.5; stroke-linecap: round"/>
     </g>
     <g id="line2d_6">
      <defs>
       <path id="m3c4485ef50" d="M 0 0 
L -3 0 
" style="stroke: #6b5f52; stroke-width: 0.7"/>
      </defs>
      <g>
       <use xlink:href="#m3c4485ef50" x="28.62125" y="126.863728" style="fill: #6b5f52; stroke: #6b5f52; stroke-width: 0.7"/>
      </g>
     </g>
     <g id="text_5">
      <!-- 4 000 -->
      <g style="fill: #6b5f52" transform="translate(5.41625 130.959728) scale(0.08 -0.08)">
       <defs>
        <path id="SourceSans3-Regular-539" d="M 1946 0 
L 1946 2733 
Q 1946 2893 1958 3126 
Q 1971 3360 1978 3520 
L 1952 3520 
Q 1875 3373 1792 3235 
Q 1709 3098 1619 2944 
L 666 1549 
L 3002 1549 
L 3002 1126 
L 109 1126 
L 109 1472 
L 1856 4083 
L 2445 4083 
L 2445 0 
L 1946 0 
z
" transform="scale(0.015625)"/>
        <path id="SourceSans3-Regular-996" transform="scale(0.015625)"/>
       </defs>
       <use xlink:href="#SourceSans3-Regular-539"/>
       <use xlink:href="#SourceSans3-Regular-996" transform="translate(49.703125 0)"/>
       <use xlink:href="#SourceSans3-Regular-535" transform="translate(59.703125 0)"/>
       <use xlink:href="#SourceSans3-Regular-535" transform="translate(109.40625 0)"/>
       <use xlink:href="#SourceSans3-Regular-535" transform="translate(159.109375 0)"/>
      </g>
     </g>
    </g>
    <g id="ytick_2">
     <g id="line2d_7">
      <path d="M 28.62125 91.88555 
L 255.124375 91.88555 
" clip-path="url(#p49d38a1fc8)" style="fill: none; stroke: #e7dad0; stroke-width: 0.5; stroke-linecap: round"/>
     </g>
     <g id="line2d_8">
      <g>
       <use xlink:href="#m3c4485ef50" x="28.62125" y="91.88555" style="fill: #6b5f52; stroke: #6b5f52; stroke-width: 0.7"/>
      </g>
     </g>
     <g id="text_6">
      <!-- 6 000 -->
      <g style="fill: #6b5f52" transform="translate(5.41625 95.98155) scale(0.08 -0.08)">
       <defs>
        <path id="SourceSans3-Regular-53b" d="M 1715 -77 
Q 1414 -77 1158 44 
Q 902 166 713 412 
Q 525 659 416 1027 
Q 307 1395 307 1888 
Q 307 2502 435 2934 
Q 563 3366 780 3635 
Q 998 3904 1276 4032 
Q 1555 4160 1862 4160 
Q 2195 4160 2435 4035 
Q 2675 3910 2848 3725 
L 2554 3398 
Q 2432 3546 2253 3632 
Q 2074 3718 1882 3718 
Q 1594 3718 1347 3545 
Q 1101 3373 953 2973 
Q 806 2573 806 1888 
Q 806 1382 912 1036 
Q 1018 691 1222 515 
Q 1427 339 1715 339 
Q 1914 339 2077 451 
Q 2240 563 2333 764 
Q 2426 966 2426 1235 
Q 2426 1498 2342 1693 
Q 2259 1888 2092 1993 
Q 1926 2099 1670 2099 
Q 1472 2099 1238 1968 
Q 1005 1837 794 1523 
L 774 1939 
Q 973 2195 1235 2345 
Q 1498 2496 1760 2496 
Q 2112 2496 2374 2355 
Q 2637 2214 2781 1932 
Q 2925 1651 2925 1235 
Q 2925 845 2758 550 
Q 2592 256 2317 89 
Q 2042 -77 1715 -77 
z
" transform="scale(0.015625)"/>
       </defs>
       <use xlink:href="#SourceSans3-Regular-53b"/>
       <use xlink:href="#SourceSans3-Regular-996" transform="translate(49.703125 0)"/>
       <use xlink:href="#SourceSans3-Regular-535" transform="translate(59.703125 0)"/>
       <use xlink:href="#SourceSans3-Regular-535" transform="translate(109.40625 0)"/>
       <use xlink:href="#SourceSans3-Regular-535" transform="translate(159.109375 0)"/>
      </g>
     </g>
    </g>
    <g id="ytick_3">
     <g id="line2d_9">
      <path d="M 28.62125 67.068137 
L 255.124375 67.068137 
" clip-path="url(#p49d38a1fc8)" style="fill: none; stroke: #e7dad0; stroke-width: 0.5; stroke-linecap: round"/>
     </g>
     <g id="line2d_10">
      <g>
       <use xlink:href="#m3c4485ef50" x="28.62125" y="67.068137" style="fill: #6b5f52; stroke: #6b5f52; stroke-width: 0.7"/>
      </g>
     </g>
     <g id="text_7">
      <!-- 8 000 -->
      <g style="fill: #6b5f52" transform="translate(5.41625 71.164137) scale(0.08 -0.08)">
       <use xlink:href="#SourceSans3-Regular-53d"/>
       <use xlink:href="#SourceSans3-Regular-996" transform="translate(49.703125 0)"/>
       <use xlink:href="#SourceSans3-Regular-535" transform="translate(59.703125 0)"/>
       <use xlink:href="#SourceSans3-Regular-535" transform="translate(109.40625 0)"/>
       <use xlink:href="#SourceSans3-Regular-535" transform="translate(159.109375 0)"/>
      </g>
     </g>
    </g>
    <g id="ytick_4">
     <g id="line2d_11">
      <path d="M 28.62125 47.818257 
L 255.124375 47.818257 
" clip-path="url(#p49d38a1fc8)" style="fill: none; stroke: #e7dad0; stroke-width: 0.5; stroke-linecap: round"/>
     </g>
     <g id="line2d_12">
      <g>
       <use xlink:href="#m3c4485ef50" x="28.62125" y="47.818257" style="fill: #6b5f52; stroke: #6b5f52; stroke-width: 0.7"/>
      </g>
     </g>
     <g id="text_8">
      <!-- 10 000 -->
      <g style="fill: #6b5f52" transform="translate(1.44 51.914257) scale(0.08 -0.08)">
       <use xlink:href="#SourceSans3-Regular-536"/>
       <use xlink:href="#SourceSans3-Regular-535" transform="translate(49.703125 0)"/>
       <use xlink:href="#SourceSans3-Regular-996" transform="translate(99.40625 0)"/>
       <use xlink:href="#SourceSans3-Regular-535" transform="translate(109.40625 0)"/>
       <use xlink:href="#SourceSans3-Regular-535" transform="translate(159.109375 0)"/>
       <use xlink:href="#SourceSans3-Regular-535" transform="translate(208.8125 0)"/>
      </g>
     </g>
    </g>
   </g>
   <g id="line2d_13">
    <path d="M 38.916847 130.044182 
L 39.322499 129.913919 
L 39.771614 129.19963 
L 40.206241 129.060568 
L 41.089983 128.007336 
L 41.539098 127.227657 
L 42.42284 126.425203 
L 42.871955 125.468763 
L 43.306582 124.992139 
L 44.204812 123.151723 
L 44.610464 122.805448 
L 45.059579 122.139641 
L 45.494207 122.575202 
L 45.943321 122.274476 
L 46.377949 122.186311 
L 46.827064 121.896369 
L 47.276179 121.950544 
L 48.159921 120.915342 
L 48.594548 121.304923 
L 49.043663 120.764979 
L 49.492778 119.821479 
L 49.89843 120.286544 
L 50.347545 120.51308 
L 50.782172 119.813112 
L 51.231287 120.376434 
L 52.115029 120.100035 
L 52.564144 118.766781 
L 52.998771 119.308019 
L 53.447886 119.467095 
L 54.331629 117.885997 
L 54.780743 117.515999 
L 55.200883 116.914029 
L 55.649998 116.465442 
L 56.084625 116.258833 
L 56.53374 115.330688 
L 56.968368 114.971732 
L 57.417482 115.00969 
L 58.301225 114.817315 
L 58.750339 115.045749 
L 59.184967 114.318089 
L 59.634082 114.194382 
L 60.488849 113.225433 
L 60.937964 112.622687 
L 61.821706 113.238805 
L 62.256333 112.602242 
L 62.705448 112.35897 
L 63.154563 112.318769 
L 64.038305 112.515285 
L 64.472932 113.026243 
L 64.922047 112.709213 
L 65.371162 113.294533 
L 65.776814 112.791856 
L 66.225929 112.615872 
L 66.660557 112.811784 
L 67.544299 112.684368 
L 67.993414 112.046425 
L 68.442529 111.827997 
L 68.877156 112.089558 
L 69.326271 113.421863 
L 69.760898 113.61441 
L 70.210013 111.61811 
L 70.659128 110.616467 
L 71.06478 110.542018 
L 71.513895 110.640707 
L 71.948522 110.490344 
L 72.397637 110.161237 
L 72.832264 109.680127 
L 73.281379 109.497586 
L 73.730494 109.85568 
L 74.165121 108.967477 
L 74.614236 109.027691 
L 75.048864 109.356195 
L 75.497979 109.185214 
L 75.947093 108.123528 
L 76.367233 107.739641 
L 76.816348 107.13655 
L 77.250975 105.943394 
L 78.134718 105.411041 
L 78.583832 105.477726 
L 79.032947 104.704257 
L 79.467575 104.520682 
L 80.351317 103.549921 
L 81.249547 102.306213 
L 81.655199 101.038781 
L 82.538941 100.645059 
L 82.988056 100.165502 
L 83.871798 100.674563 
L 84.320913 101.221322 
L 85.639282 99.884359 
L 86.088397 100.109688 
L 86.537512 100.71114 
L 86.943164 100.899891 
L 87.392279 100.776789 
L 87.826907 100.805516 
L 88.276021 100.280755 
L 88.710649 100.624096 
L 89.159764 101.127204 
L 89.608878 101.859782 
L 90.492621 100.456394 
L 91.376363 103.046641 
L 91.825478 102.508595 
L 92.23113 102.991948 
L 92.680245 102.912065 
L 93.114872 102.349605 
L 93.563987 102.2774 
L 94.896844 100.825012 
L 95.331471 100.084929 
L 96.215214 99.806632 
L 97.533583 97.444475 
L 97.982698 97.442145 
L 98.86644 96.876408 
L 99.301068 97.014521 
L 100.199297 96.454649 
L 100.633925 96.464139 
L 101.083039 96.689899 
L 101.517667 95.831113 
L 101.966782 95.229747 
L 102.415897 95.745105 
L 102.821549 94.826105 
L 103.270664 94.183331 
L 103.705291 93.865783 
L 104.154406 93.305393 
L 105.038148 91.945397 
L 105.92189 91.491806 
L 106.805632 91.813409 
L 107.254747 91.633629 
L 107.703862 92.34904 
L 108.109514 91.733699 
L 108.993257 88.558735 
L 109.442371 88.21315 
L 109.876999 87.611439 
L 110.326114 87.547343 
L 111.658971 86.563125 
L 112.542713 85.751786 
L 112.991828 86.313383 
L 113.39748 85.920783 
L 113.846595 85.667848 
L 114.281222 86.448218 
L 114.730337 85.70986 
L 115.614079 85.139982 
L 116.063194 85.383168 
L 116.497821 85.212187 
L 116.946936 84.908873 
L 117.381564 85.06631 
L 117.830678 85.094002 
L 118.699933 84.722796 
L 119.149048 84.62911 
L 120.03279 86.808986 
L 120.467417 87.153276 
L 120.916532 87.069511 
L 121.365647 86.80657 
L 121.800275 86.053461 
L 122.249389 86.040435 
L 123.133132 84.145929 
L 123.582247 83.471841 
L 123.987899 83.340197 
L 124.437014 83.059744 
L 124.871641 84.058627 
L 125.320756 83.983575 
L 125.755383 83.726069 
L 126.204498 83.027825 
L 126.653613 82.795681 
L 127.537355 83.220632 
L 128.421097 84.734873 
L 128.870212 86.336847 
L 129.275864 84.872555 
L 129.724979 85.016965 
L 131.043349 84.912755 
L 131.492464 85.102801 
L 131.941578 85.435532 
L 132.376206 85.209168 
L 132.825321 85.170952 
L 133.259948 85.013428 
L 133.709063 85.307512 
L 134.158178 84.072171 
L 134.56383 84.398001 
L 135.012945 83.657401 
L 135.447572 82.533775 
L 135.896687 81.990898 
L 136.331314 81.761946 
L 137.229544 80.575778 
L 137.664171 79.577067 
L 138.113286 78.899873 
L 138.997028 78.425491 
L 139.446143 77.278919 
L 140.315398 76.603364 
L 141.19914 75.417282 
L 142.082882 74.754753 
L 143.415739 74.36638 
L 143.850367 73.868965 
L 144.299482 73.563926 
L 144.748597 73.500865 
L 145.154249 73.008885 
L 145.603364 72.730934 
L 146.037991 72.752155 
L 147.370848 71.592557 
L 148.25459 70.4082 
L 148.703705 70.727732 
L 149.138332 70.494553 
L 149.587447 69.729108 
L 150.036562 69.268529 
L 150.891329 69.740926 
L 151.775071 69.009297 
L 152.209699 68.950895 
L 152.658814 68.276806 
L 153.107928 68.303549 
L 154.426298 67.906894 
L 154.875413 67.462792 
L 155.324528 67.741348 
L 155.73018 66.979526 
L 156.179295 66.926299 
L 157.063037 66.195274 
L 157.946779 65.765148 
L 158.395894 65.369701 
L 158.830521 65.281795 
L 159.279636 64.342608 
L 160.163378 63.80068 
L 160.612493 63.882203 
L 161.481748 63.266258 
L 161.916375 62.610457 
L 162.36549 62.493393 
L 162.800117 62.229331 
L 163.249232 62.211128 
L 163.698347 61.813007 
L 164.132975 61.820167 
L 164.582089 61.218542 
L 165.914947 60.02599 
L 166.320599 60.114069 
L 167.204341 59.346984 
L 167.653456 59.468534 
L 168.088083 58.999847 
L 168.537198 59.136752 
L 168.986313 58.2966 
L 169.870055 58.741909 
L 170.304682 58.560576 
L 170.753797 58.042889 
L 171.202912 58.1427 
L 171.608564 57.374666 
L 172.057679 57.012087 
L 172.492306 57.20058 
L 172.941421 57.212743 
L 173.376049 57.112329 
L 173.825164 57.289176 
L 174.708906 57.010534 
L 175.158021 57.432896 
L 175.592648 58.035988 
L 176.041763 58.21085 
L 176.490878 58.148738 
L 177.345645 58.447394 
L 177.780272 58.199722 
L 178.664014 57.114658 
L 179.113129 57.3487 
L 179.562244 57.404342 
L 179.996871 56.900458 
L 180.445986 56.9963 
L 181.778843 56.525025 
L 182.648098 55.193755 
L 183.53184 54.853778 
L 183.966467 54.812025 
L 184.415582 54.049167 
L 184.864697 54.187108 
L 185.299325 53.908294 
L 185.748439 53.319436 
L 186.183067 53.073317 
L 186.632182 53.17192 
L 187.936064 52.956253 
L 188.370691 52.532769 
L 188.819806 52.607649 
L 189.703548 52.216602 
L 190.152663 52.218845 
L 190.58729 51.856265 
L 191.036405 51.282677 
L 192.369262 50.356085 
L 192.774914 50.327359 
L 193.224029 49.654736 
L 194.542399 48.597795 
L 194.991514 48.632561 
L 196.324371 47.81803 
L 196.758998 47.538525 
L 197.208113 47.025756 
L 197.657228 47.0795 
L 198.06288 47.246167 
L 198.946622 47.130483 
L 199.830364 46.581568 
L 200.279479 46.816817 
L 200.728594 45.919901 
L 201.163221 45.655752 
L 201.612336 45.738482 
L 202.496078 45.267897 
L 202.945193 45.661274 
L 203.365333 44.58984 
L 203.814448 44.620119 
L 204.69819 43.477947 
L 205.132817 42.931447 
L 205.581932 43.102428 
L 206.465675 42.21526 
L 206.914789 42.171005 
L 207.349417 41.659615 
L 207.798532 41.453869 
L 208.247646 41.710858 
L 209.102414 40.549965 
L 209.537041 40.259936 
L 209.986156 39.739144 
L 210.869898 39.048578 
L 211.319013 38.66978 
L 213.086497 37.852489 
L 213.535612 37.380609 
L 214.390379 37.033903 
L 214.825006 36.681158 
L 215.274121 36.097477 
L 215.708749 36.34282 
L 216.157864 36.351015 
L 216.606978 34.717294 
L 217.041606 34.698402 
L 217.490721 34.004386 
L 217.925348 33.91924 
L 219.678345 32.852465 
L 220.112972 32.719096 
L 220.562087 32.132137 
L 220.996714 32.117644 
L 221.894944 31.055096 
L 222.329571 31.134634 
L 222.778686 30.076917 
L 223.662428 29.419305 
L 224.111543 29.74108 
L 224.531683 29.620997 
L 224.980798 29.150239 
L 225.415425 28.213813 
L 225.86454 27.803183 
L 226.299167 27.653682 
L 227.197397 27.985033 
L 227.632025 27.549472 
L 228.081139 27.485807 
L 228.515767 27.239602 
L 228.964882 27.238998 
L 229.413996 27.577854 
L 229.819649 27.692244 
L 230.268764 27.436117 
L 230.703391 27.033597 
L 231.152506 27.074056 
L 232.036248 27.455873 
L 233.369105 27.220968 
L 233.803732 27.25582 
L 234.252847 27.014532 
L 234.701962 26.475105 
L 235.107614 26.469843 
L 235.556729 26.125897 
L 235.991356 26.139872 
L 236.440471 26.041356 
L 236.875099 25.479931 
L 237.324214 25.563093 
L 238.207956 25.367353 
L 238.657071 25.520649 
L 239.091698 25.200168 
L 239.540813 25.574049 
L 240.844695 24.758051 
L 241.279322 24.682912 
L 242.612179 23.001745 
L 243.061294 22.889081 
L 243.495921 22.325154 
L 243.945036 22.138128 
L 244.379664 21.567818 
L 244.828778 21.590593 
L 244.828778 21.590593 
" clip-path="url(#p49d38a1fc8)" style="fill: none; stroke: #2a231d; stroke-linecap: round"/>
   </g>
   <g id="patch_3">
    <path d="M 28.62125 135.468 
L 28.62125 16.144 
" style="fill: none; stroke: #6b5f52; stroke-width: 0.7; stroke-linejoin: miter; stroke-linecap: square"/>
   </g>
   <g id="patch_4">
    <path d="M 28.62125 135.468 
L 255.124375 135.468 
" style="fill: none; stroke: #6b5f52; stroke-width: 0.7; stroke-linejoin: miter; stroke-linecap: square"/>
   </g>
   <g id="text_9">
    <!-- PBI real, EE.UU. -->
    <g style="fill: #2a231d" transform="translate(28.62125 10.144) scale(0.085 -0.085)">
     <defs>
      <path id="SourceSans3-Regular-11" d="M 576 0 
L 576 4198 
L 1773 4198 
Q 2246 4198 2598 4080 
Q 2950 3962 3148 3693 
Q 3347 3424 3347 2963 
Q 3347 2522 3152 2237 
Q 2957 1952 2608 1808 
Q 2259 1664 1798 1664 
L 1107 1664 
L 1107 0 
L 576 0 
z
M 1107 2099 
L 1734 2099 
Q 2285 2099 2550 2310 
Q 2816 2522 2816 2963 
Q 2816 3418 2537 3594 
Q 2259 3770 1709 3770 
L 1107 3770 
L 1107 2099 
z
" transform="scale(0.015625)"/>
      <path id="SourceSans3-Regular-3" d="M 576 0 
L 576 4198 
L 1824 4198 
Q 2246 4198 2572 4096 
Q 2899 3994 3081 3766 
Q 3264 3539 3264 3174 
Q 3264 2848 3107 2601 
Q 2950 2355 2650 2259 
L 2650 2234 
Q 3046 2163 3276 1916 
Q 3507 1670 3507 1248 
Q 3507 826 3305 550 
Q 3104 275 2745 137 
Q 2387 0 1914 0 
L 576 0 
z
M 1107 2413 
L 1728 2413 
Q 2266 2413 2502 2598 
Q 2739 2784 2739 3104 
Q 2739 3475 2489 3625 
Q 2240 3776 1754 3776 
L 1107 3776 
L 1107 2413 
z
M 1107 422 
L 1837 422 
Q 2381 422 2681 624 
Q 2982 826 2982 1248 
Q 2982 1638 2688 1820 
Q 2394 2003 1837 2003 
L 1107 2003 
L 1107 422 
z
" transform="scale(0.015625)"/>
      <path id="SourceSans3-Regular-a" d="M 576 0 
L 576 4198 
L 1107 4198 
L 1107 0 
L 576 0 
z
" transform="scale(0.015625)"/>
      <path id="SourceSans3-Regular-1" transform="scale(0.015625)"/>
      <path id="SourceSans3-Regular-2d" d="M 525 0 
L 525 3110 
L 960 3110 
L 1005 2547 
L 1024 2547 
Q 1178 2842 1408 3014 
Q 1638 3187 1907 3187 
Q 2010 3187 2086 3174 
Q 2163 3162 2240 3123 
L 2125 2675 
Q 2054 2694 1993 2704 
Q 1933 2714 1837 2714 
Q 1638 2714 1424 2554 
Q 1210 2394 1050 1997 
L 1050 0 
L 525 0 
z
" transform="scale(0.015625)"/>
      <path id="SourceSans3-Regular-20" d="M 1786 -77 
Q 1370 -77 1027 118 
Q 685 314 486 675 
Q 288 1037 288 1555 
Q 288 2061 493 2425 
Q 698 2790 1018 2988 
Q 1338 3187 1696 3187 
Q 2093 3187 2371 3004 
Q 2650 2822 2790 2496 
Q 2931 2170 2931 1728 
Q 2931 1645 2928 1568 
Q 2925 1491 2906 1414 
L 666 1414 
L 666 1830 
L 2458 1830 
Q 2458 2278 2262 2518 
Q 2067 2758 1702 2758 
Q 1491 2758 1286 2640 
Q 1082 2522 950 2259 
Q 819 1997 819 1562 
Q 819 1165 956 896 
Q 1094 627 1331 489 
Q 1568 352 1850 352 
Q 2074 352 2269 416 
Q 2464 480 2624 589 
L 2816 243 
Q 2611 102 2358 12 
Q 2106 -77 1786 -77 
z
" transform="scale(0.015625)"/>
      <path id="SourceSans3-Regular-1c" d="M 1242 -77 
Q 986 -77 778 28 
Q 570 134 448 329 
Q 326 525 326 806 
Q 326 1331 787 1600 
Q 1248 1869 2246 1978 
Q 2240 2170 2185 2349 
Q 2131 2528 1990 2637 
Q 1850 2746 1600 2746 
Q 1331 2746 1094 2646 
Q 858 2547 672 2426 
L 467 2784 
Q 608 2880 800 2973 
Q 992 3066 1216 3126 
Q 1440 3187 1690 3187 
Q 2067 3187 2307 3030 
Q 2547 2874 2659 2586 
Q 2771 2298 2771 1907 
L 2771 0 
L 2336 0 
L 2291 371 
L 2272 371 
Q 2048 186 1792 54 
Q 1536 -77 1242 -77 
z
M 1389 358 
Q 1619 358 1820 460 
Q 2022 563 2246 762 
L 2246 1600 
Q 1722 1536 1418 1437 
Q 1114 1338 979 1190 
Q 845 1043 845 838 
Q 845 582 1005 470 
Q 1165 358 1389 358 
z
" transform="scale(0.015625)"/>
      <path id="SourceSans3-Regular-27" d="M 1082 -58 
Q 883 -58 761 22 
Q 640 102 582 259 
Q 525 416 525 640 
L 525 4557 
L 1050 4557 
L 1050 602 
Q 1050 474 1094 426 
Q 1139 378 1203 378 
Q 1229 378 1251 381 
Q 1274 384 1312 390 
L 1389 -6 
Q 1331 -26 1257 -42 
Q 1184 -58 1082 -58 
z
" transform="scale(0.015625)"/>
      <path id="SourceSans3-Regular-56c" d="M 429 -1088 
L 301 -781 
Q 576 -659 729 -451 
Q 883 -243 877 13 
L 819 486 
L 1082 102 
Q 1024 45 957 19 
Q 890 -6 813 -6 
Q 659 -6 547 90 
Q 435 186 435 358 
Q 435 531 553 630 
Q 672 730 826 730 
Q 1037 730 1152 566 
Q 1267 403 1267 109 
Q 1267 -301 1043 -614 
Q 819 -928 429 -1088 
z
" transform="scale(0.015625)"/>
      <path id="SourceSans3-Regular-6" d="M 576 0 
L 576 4198 
L 2995 4198 
L 2995 3750 
L 1107 3750 
L 1107 2432 
L 2701 2432 
L 2701 1978 
L 1107 1978 
L 1107 454 
L 3059 454 
L 3059 0 
L 576 0 
z
" transform="scale(0.015625)"/>
      <path id="SourceSans3-Regular-56b" d="M 800 -77 
Q 646 -77 531 35 
Q 416 147 416 320 
Q 416 506 531 618 
Q 646 730 800 730 
Q 960 730 1069 618 
Q 1178 506 1178 320 
Q 1178 147 1069 35 
Q 960 -77 800 -77 
z
" transform="scale(0.015625)"/>
      <path id="SourceSans3-Regular-16" d="M 2067 -77 
Q 1741 -77 1469 16 
Q 1197 109 992 317 
Q 787 525 672 870 
Q 557 1216 557 1709 
L 557 4198 
L 1088 4198 
L 1088 1696 
Q 1088 1203 1219 918 
Q 1350 634 1571 515 
Q 1792 397 2067 397 
Q 2342 397 2569 515 
Q 2797 634 2931 918 
Q 3066 1203 3066 1696 
L 3066 4198 
L 3571 4198 
L 3571 1709 
Q 3571 1216 3459 870 
Q 3347 525 3142 317 
Q 2938 109 2662 16 
Q 2387 -77 2067 -77 
z
" transform="scale(0.015625)"/>
     </defs>
     <use xlink:href="#SourceSans3-Regular-11"/>
     <use xlink:href="#SourceSans3-Regular-3" transform="translate(56.59375 0)"/>
     <use xlink:href="#SourceSans3-Regular-a" transform="translate(115.390625 0)"/>
     <use xlink:href="#SourceSans3-Regular-1" transform="translate(141.6875 0)"/>
     <use xlink:href="#SourceSans3-Regular-2d" transform="translate(161.6875 0)"/>
     <use xlink:href="#SourceSans3-Regular-20" transform="translate(195.390625 0)"/>
     <use xlink:href="#SourceSans3-Regular-1c" transform="translate(243.578125 0)"/>
     <use xlink:href="#SourceSans3-Regular-27" transform="translate(293.984375 0)"/>
     <use xlink:href="#SourceSans3-Regular-56c" transform="translate(319.484375 0)"/>
     <use xlink:href="#SourceSans3-Regular-1" transform="translate(344.390625 0)"/>
     <use xlink:href="#SourceSans3-Regular-6" transform="translate(364.390625 0)"/>
     <use xlink:href="#SourceSans3-Regular-6" transform="translate(417.09375 0)"/>
     <use xlink:href="#SourceSans3-Regular-56b" transform="translate(469.796875 0)"/>
     <use xlink:href="#SourceSans3-Regular-16" transform="translate(492.703125 0)"/>
     <use xlink:href="#SourceSans3-Regular-16" transform="translate(557.203125 0)"/>
     <use xlink:href="#SourceSans3-Regular-56b" transform="translate(620.109375 0)"/>
    </g>
   </g>
  </g>
  <g id="axes_2">
   <g id="patch_5">
    <path d="M 274.616875 135.468 
L 501.12 135.468 
L 501.12 16.144 
L 274.616875 16.144 
z
" style="fill: #ffffff"/>
   </g>
   <g id="matplotlib.axis_3">
    <g id="xtick_5">
     <g id="line2d_14">
      <g>
       <use xlink:href="#mb73183eade" x="310.917672" y="135.468" style="fill: #6b5f52; stroke: #6b5f52; stroke-width: 0.7"/>
      </g>
     </g>
     <g id="text_10">
      <!-- 1970 -->
      <g style="fill: #6b5f52" transform="translate(302.965172 150.16) scale(0.08 -0.08)">
       <use xlink:href="#SourceSans3-Regular-536"/>
       <use xlink:href="#SourceSans3-Regular-53e" transform="translate(49.703125 0)"/>
       <use xlink:href="#SourceSans3-Regular-53c" transform="translate(99.40625 0)"/>
       <use xlink:href="#SourceSans3-Regular-535" transform="translate(149.109375 0)"/>
      </g>
     </g>
    </g>
    <g id="xtick_6">
     <g id="line2d_15">
      <g>
       <use xlink:href="#mb73183eade" x="363.826303" y="135.468" style="fill: #6b5f52; stroke: #6b5f52; stroke-width: 0.7"/>
      </g>
     </g>
     <g id="text_11">
      <!-- 1980 -->
      <g style="fill: #6b5f52" transform="translate(355.873803 150.16) scale(0.08 -0.08)">
       <use xlink:href="#SourceSans3-Regular-536"/>
       <use xlink:href="#SourceSans3-Regular-53e" transform="translate(49.703125 0)"/>
       <use xlink:href="#SourceSans3-Regular-53d" transform="translate(99.40625 0)"/>
       <use xlink:href="#SourceSans3-Regular-535" transform="translate(149.109375 0)"/>
      </g>
     </g>
    </g>
    <g id="xtick_7">
     <g id="line2d_16">
      <g>
       <use xlink:href="#mb73183eade" x="416.749422" y="135.468" style="fill: #6b5f52; stroke: #6b5f52; stroke-width: 0.7"/>
      </g>
     </g>
     <g id="text_12">
      <!-- 1990 -->
      <g style="fill: #6b5f52" transform="translate(408.796922 150.16) scale(0.08 -0.08)">
       <use xlink:href="#SourceSans3-Regular-536"/>
       <use xlink:href="#SourceSans3-Regular-53e" transform="translate(49.703125 0)"/>
       <use xlink:href="#SourceSans3-Regular-53e" transform="translate(99.40625 0)"/>
       <use xlink:href="#SourceSans3-Regular-535" transform="translate(149.109375 0)"/>
      </g>
     </g>
    </g>
    <g id="xtick_8">
     <g id="line2d_17">
      <g>
       <use xlink:href="#mb73183eade" x="469.658053" y="135.468" style="fill: #6b5f52; stroke: #6b5f52; stroke-width: 0.7"/>
      </g>
     </g>
     <g id="text_13">
      <!-- 2000 -->
      <g style="fill: #6b5f52" transform="translate(461.705553 150.16) scale(0.08 -0.08)">
       <use xlink:href="#SourceSans3-Regular-537"/>
       <use xlink:href="#SourceSans3-Regular-535" transform="translate(49.703125 0)"/>
       <use xlink:href="#SourceSans3-Regular-535" transform="translate(99.40625 0)"/>
       <use xlink:href="#SourceSans3-Regular-535" transform="translate(149.109375 0)"/>
      </g>
     </g>
    </g>
   </g>
   <g id="matplotlib.axis_4">
    <g id="ytick_5">
     <g id="line2d_18">
      <path d="M 274.616875 124.846238 
L 501.12 124.846238 
" clip-path="url(#pad1fca7bb0)" style="fill: none; stroke: #e7dad0; stroke-width: 0.5; stroke-linecap: round"/>
     </g>
     <g id="line2d_19">
      <g>
       <use xlink:href="#m3c4485ef50" x="274.616875" y="124.846238" style="fill: #6b5f52; stroke: #6b5f52; stroke-width: 0.7"/>
      </g>
     </g>
     <g id="text_14">
      <!-- 20 -->
      <g style="fill: #6b5f52" transform="translate(260.164375 128.942238) scale(0.08 -0.08)">
       <use xlink:href="#SourceSans3-Regular-537"/>
       <use xlink:href="#SourceSans3-Regular-535" transform="translate(49.703125 0)"/>
      </g>
     </g>
    </g>
    <g id="ytick_6">
     <g id="line2d_20">
      <path d="M 274.616875 76.376157 
L 501.12 76.376157 
" clip-path="url(#pad1fca7bb0)" style="fill: none; stroke: #e7dad0; stroke-width: 0.5; stroke-linecap: round"/>
     </g>
     <g id="line2d_21">
      <g>
       <use xlink:href="#m3c4485ef50" x="274.616875" y="76.376157" style="fill: #6b5f52; stroke: #6b5f52; stroke-width: 0.7"/>
      </g>
     </g>
     <g id="text_15">
      <!-- 40 -->
      <g style="fill: #6b5f52" transform="translate(260.164375 80.472157) scale(0.08 -0.08)">
       <use xlink:href="#SourceSans3-Regular-539"/>
       <use xlink:href="#SourceSans3-Regular-535" transform="translate(49.703125 0)"/>
      </g>
     </g>
    </g>
    <g id="ytick_7">
     <g id="line2d_22">
      <path d="M 274.616875 48.022978 
L 501.12 48.022978 
" clip-path="url(#pad1fca7bb0)" style="fill: none; stroke: #e7dad0; stroke-width: 0.5; stroke-linecap: round"/>
     </g>
     <g id="line2d_23">
      <g>
       <use xlink:href="#m3c4485ef50" x="274.616875" y="48.022978" style="fill: #6b5f52; stroke: #6b5f52; stroke-width: 0.7"/>
      </g>
     </g>
     <g id="text_16">
      <!-- 60 -->
      <g style="fill: #6b5f52" transform="translate(260.164375 52.118978) scale(0.08 -0.08)">
       <use xlink:href="#SourceSans3-Regular-53b"/>
       <use xlink:href="#SourceSans3-Regular-535" transform="translate(49.703125 0)"/>
      </g>
     </g>
    </g>
    <g id="ytick_8">
     <g id="line2d_24">
      <path d="M 274.616875 27.906076 
L 501.12 27.906076 
" clip-path="url(#pad1fca7bb0)" style="fill: none; stroke: #e7dad0; stroke-width: 0.5; stroke-linecap: round"/>
     </g>
     <g id="line2d_25">
      <g>
       <use xlink:href="#m3c4485ef50" x="274.616875" y="27.906076" style="fill: #6b5f52; stroke: #6b5f52; stroke-width: 0.7"/>
      </g>
     </g>
     <g id="text_17">
      <!-- 80 -->
      <g style="fill: #6b5f52" transform="translate(260.164375 32.002076) scale(0.08 -0.08)">
       <use xlink:href="#SourceSans3-Regular-53d"/>
       <use xlink:href="#SourceSans3-Regular-535" transform="translate(49.703125 0)"/>
      </g>
     </g>
    </g>
   </g>
   <g id="line2d_26">
    <path d="M 284.912472 129.909571 
L 285.318124 130.044182 
L 286.201866 129.888803 
L 287.085608 129.419169 
L 288.418465 129.27386 
L 291.489832 128.102713 
L 292.822689 127.477421 
L 293.271804 127.152328 
L 293.706431 127.003662 
L 294.155546 126.727868 
L 295.488403 126.505568 
L 295.894055 126.246067 
L 296.34317 126.239774 
L 296.777797 126.050829 
L 297.226912 126.077612 
L 298.994396 125.082613 
L 299.443511 124.908213 
L 299.878139 124.473544 
L 302.08025 123.311628 
L 304.29685 122.191249 
L 304.745964 121.660429 
L 305.180592 121.426101 
L 305.629707 121.028563 
L 306.484474 120.74207 
L 307.368216 119.978741 
L 307.817331 119.82511 
L 310.03393 118.163562 
L 311.366787 117.308767 
L 312.221554 116.554249 
L 312.656182 116.174263 
L 314.872781 115.215766 
L 315.756523 114.51712 
L 316.654753 113.608971 
L 317.060405 113.454571 
L 319.277004 111.868684 
L 319.726119 111.819945 
L 321.044489 111.198638 
L 321.493604 110.937809 
L 322.362858 110.013716 
L 324.130343 109.548628 
L 325.912314 108.382027 
L 326.346942 108.088051 
L 326.796057 107.977216 
L 328.099939 107.026691 
L 329.867423 105.536885 
L 330.316538 104.871244 
L 332.533137 102.794746 
L 334.271646 100.690906 
L 334.706274 99.830867 
L 335.155389 99.528151 
L 335.604503 98.712795 
L 336.039131 97.655141 
L 336.922873 96.656996 
L 337.371988 95.989257 
L 339.110497 94.286312 
L 339.559612 94.077998 
L 340.443354 93.054748 
L 340.892469 92.848811 
L 342.210839 91.548159 
L 343.109068 91.037828 
L 344.41295 90.537426 
L 345.296693 89.835563 
L 345.745807 89.637599 
L 346.62955 88.87385 
L 347.078664 88.343799 
L 348.411522 87.363835 
L 348.817174 86.845182 
L 349.266289 86.5861 
L 349.700916 86.152899 
L 350.150031 86.000737 
L 351.917515 84.716517 
L 352.801257 83.536141 
L 353.699487 82.848683 
L 354.105139 82.635684 
L 357.205481 79.672294 
L 357.654596 79.006444 
L 359.393105 77.448178 
L 362.058819 74.264377 
L 362.493446 73.939004 
L 363.826303 72.426542 
L 366.028415 70.004811 
L 366.463042 69.232321 
L 366.912157 69.003239 
L 368.679642 66.449624 
L 369.983524 64.672905 
L 375.271489 59.802452 
L 376.155232 59.675743 
L 377.038974 58.490681 
L 377.937203 58.092444 
L 378.371831 57.908604 
L 378.820946 57.364987 
L 379.255573 57.244852 
L 379.704688 57.311912 
L 380.153803 56.825636 
L 382.326939 56.141046 
L 382.776054 55.727075 
L 384.543539 55.012275 
L 384.992653 54.88256 
L 385.861908 54.24475 
L 386.311023 54.110979 
L 387.194765 53.700504 
L 388.078507 53.329609 
L 389.411364 52.762356 
L 389.845992 52.723617 
L 390.744222 52.278388 
L 391.598989 51.507856 
L 392.482731 51.505199 
L 392.917358 51.294997 
L 393.815588 51.072557 
L 394.250215 50.825014 
L 395.133957 50.621664 
L 396.886954 50.294334 
L 397.321581 50.218252 
L 398.205324 49.821204 
L 398.654439 49.754773 
L 399.103553 49.83428 
L 399.538181 49.612051 
L 400.421923 49.35164 
L 403.493289 48.187417 
L 403.942404 48.074833 
L 404.826146 47.686805 
L 407.477373 46.606565 
L 407.912 46.289443 
L 408.361115 46.123995 
L 409.693972 45.236824 
L 410.1286 44.996553 
L 411.012342 44.726213 
L 414.532823 42.766703 
L 415.416565 42.642162 
L 417.604189 41.477099 
L 418.487931 40.893344 
L 418.937046 40.826214 
L 419.371674 40.48238 
L 419.820789 40.342175 
L 420.704531 39.926946 
L 421.153646 39.722757 
L 421.588273 39.711429 
L 422.486503 39.068935 
L 422.892155 38.847055 
L 423.775897 38.623426 
L 425.992496 37.740591 
L 426.441611 37.714298 
L 427.325353 37.353122 
L 428.194608 37.285852 
L 429.07835 36.875308 
L 431.29495 36.367703 
L 432.178692 35.932265 
L 432.627807 35.867302 
L 433.482574 35.571159 
L 433.931689 35.511161 
L 436.148288 34.640633 
L 436.582915 34.661052 
L 437.915772 34.239808 
L 438.364887 34.240577 
L 439.219654 33.836886 
L 440.103396 33.693324 
L 448.042589 31.521655 
L 448.491703 31.529976 
L 448.940818 31.241735 
L 451.577557 30.751053 
L 452.026672 30.765598 
L 453.794157 30.200374 
L 455.098039 29.841995 
L 455.532666 29.751579 
L 455.981781 29.774025 
L 458.19838 29.310546 
L 459.531237 29.09433 
L 460.820631 29.130133 
L 461.704374 28.884337 
L 463.037231 28.693994 
L 465.67397 28.241843 
L 466.108597 27.925491 
L 466.992339 28.074436 
L 467.441454 27.825424 
L 467.890569 27.78123 
L 468.774311 27.499842 
L 469.658053 27.31852 
L 470.976423 26.62288 
L 471.860165 26.558897 
L 472.743907 26.146254 
L 473.193022 26.134087 
L 473.62765 25.859412 
L 476.699016 25.037483 
L 477.148131 24.685258 
L 477.582758 24.491769 
L 478.031873 24.493517 
L 478.480988 24.621834 
L 478.915615 24.405198 
L 479.799357 24.292755 
L 480.248472 24.275203 
L 481.103239 24.070805 
L 481.552354 24.042624 
L 481.986981 23.808786 
L 483.319839 23.664666 
L 484.203581 23.369362 
L 485.985553 22.871827 
L 486.391205 22.623724 
L 488.607804 22.319399 
L 489.491546 21.829067 
L 489.940661 21.893471 
L 490.824403 21.567818 
L 490.824403 21.567818 
" clip-path="url(#pad1fca7bb0)" style="fill: none; stroke: #2a231d; stroke-linecap: round"/>
   </g>
   <g id="patch_6">
    <path d="M 274.616875 135.468 
L 274.616875 16.144 
" style="fill: none; stroke: #6b5f52; stroke-width: 0.7; stroke-linejoin: miter; stroke-linecap: square"/>
   </g>
   <g id="patch_7">
    <path d="M 274.616875 135.468 
L 501.12 135.468 
" style="fill: none; stroke: #6b5f52; stroke-width: 0.7; stroke-linejoin: miter; stroke-linecap: square"/>
   </g>
   <g id="text_18">
    <!-- deflactor, EE.UU. -->
    <g style="fill: #2a231d" transform="translate(274.616875 10.144) scale(0.085 -0.085)">
     <defs>
      <path id="SourceSans3-Regular-1f" d="M 1587 -77 
Q 998 -77 649 348 
Q 301 774 301 1549 
Q 301 2054 489 2422 
Q 678 2790 985 2988 
Q 1293 3187 1651 3187 
Q 1926 3187 2121 3094 
Q 2317 3002 2522 2829 
L 2496 3360 
L 2496 4557 
L 3027 4557 
L 3027 0 
L 2592 0 
L 2547 365 
L 2528 365 
Q 2349 186 2105 54 
Q 1862 -77 1587 -77 
z
M 1702 365 
Q 1920 365 2112 473 
Q 2304 582 2496 794 
L 2496 2419 
Q 2304 2598 2118 2672 
Q 1933 2746 1741 2746 
Q 1491 2746 1289 2595 
Q 1088 2445 966 2179 
Q 845 1914 845 1555 
Q 845 998 1069 681 
Q 1293 365 1702 365 
z
" transform="scale(0.015625)"/>
      <path id="SourceSans3-Regular-21" d="M 614 0 
L 614 3603 
Q 614 3917 710 4150 
Q 806 4384 1008 4509 
Q 1210 4634 1523 4634 
Q 1664 4634 1801 4605 
Q 1939 4576 2042 4531 
L 1926 4147 
Q 1741 4205 1574 4205 
Q 1357 4205 1248 4054 
Q 1139 3904 1139 3603 
L 1139 0 
L 614 0 
z
M 154 2682 
L 154 3078 
L 640 3110 
L 1798 3110 
L 1798 2682 
L 154 2682 
z
" transform="scale(0.015625)"/>
      <path id="SourceSans3-Regular-1e" d="M 1760 -77 
Q 1344 -77 1011 115 
Q 678 307 486 672 
Q 294 1037 294 1549 
Q 294 2074 502 2438 
Q 710 2803 1052 2995 
Q 1395 3187 1792 3187 
Q 2099 3187 2320 3084 
Q 2541 2982 2701 2822 
L 2438 2496 
Q 2323 2611 2166 2678 
Q 2010 2746 1811 2746 
Q 1536 2746 1315 2595 
Q 1094 2445 966 2176 
Q 838 1907 838 1549 
Q 838 1197 960 928 
Q 1082 659 1299 508 
Q 1517 358 1805 358 
Q 2022 358 2208 441 
Q 2394 525 2528 653 
L 2758 333 
Q 2560 147 2310 35 
Q 2061 -77 1760 -77 
z
" transform="scale(0.015625)"/>
      <path id="SourceSans3-Regular-2f" d="M 1504 -58 
Q 1011 -58 812 230 
Q 614 518 614 979 
L 614 2682 
L 154 2682 
L 154 3078 
L 640 3110 
L 704 4109 
L 1146 4109 
L 1146 3110 
L 1990 3110 
L 1990 2682 
L 1146 2682 
L 1146 973 
Q 1146 691 1251 531 
Q 1357 371 1626 371 
Q 1709 371 1798 387 
Q 1888 403 1978 448 
L 2093 77 
Q 1971 19 1817 -19 
Q 1664 -58 1504 -58 
z
" transform="scale(0.015625)"/>
      <path id="SourceSans3-Regular-2a" d="M 1734 -77 
Q 1357 -77 1027 115 
Q 698 307 496 672 
Q 294 1037 294 1549 
Q 294 2074 496 2438 
Q 698 2803 1027 2995 
Q 1357 3187 1734 3187 
Q 2118 3187 2444 2995 
Q 2771 2803 2972 2438 
Q 3174 2074 3174 1549 
Q 3174 1037 2972 672 
Q 2771 307 2444 115 
Q 2118 -77 1734 -77 
z
M 1734 358 
Q 2003 358 2208 508 
Q 2413 659 2521 928 
Q 2630 1197 2630 1549 
Q 2630 1907 2521 2179 
Q 2413 2451 2208 2601 
Q 2003 2752 1734 2752 
Q 1466 2752 1264 2601 
Q 1062 2451 950 2179 
Q 838 1907 838 1549 
Q 838 1197 950 928 
Q 1062 659 1264 508 
Q 1466 358 1734 358 
z
" transform="scale(0.015625)"/>
     </defs>
     <use xlink:href="#SourceSans3-Regular-1f"/>
     <use xlink:href="#SourceSans3-Regular-20" transform="translate(55.5 0)"/>
     <use xlink:href="#SourceSans3-Regular-21" transform="translate(104.890625 0)"/>
     <use xlink:href="#SourceSans3-Regular-27" transform="translate(134.09375 0)"/>
     <use xlink:href="#SourceSans3-Regular-1c" transform="translate(159.59375 0)"/>
     <use xlink:href="#SourceSans3-Regular-1e" transform="translate(210 0)"/>
     <use xlink:href="#SourceSans3-Regular-2f" transform="translate(254.59375 0)"/>
     <use xlink:href="#SourceSans3-Regular-2a" transform="translate(286.984375 0)"/>
     <use xlink:href="#SourceSans3-Regular-2d" transform="translate(341.1875 0)"/>
     <use xlink:href="#SourceSans3-Regular-56c" transform="translate(370.1875 0)"/>
     <use xlink:href="#SourceSans3-Regular-1" transform="translate(395.09375 0)"/>
     <use xlink:href="#SourceSans3-Regular-6" transform="translate(415.09375 0)"/>
     <use xlink:href="#SourceSans3-Regular-6" transform="translate(467.796875 0)"/>
     <use xlink:href="#SourceSans3-Regular-56b" transform="translate(520.5 0)"/>
     <use xlink:href="#SourceSans3-Regular-16" transform="translate(543.40625 0)"/>
     <use xlink:href="#SourceSans3-Regular-16" transform="translate(607.90625 0)"/>
     <use xlink:href="#SourceSans3-Regular-56b" transform="translate(670.8125 0)"/>
    </g>
   </g>
  </g>
  <g id="axes_3">
   <g id="patch_8">
    <path d="M 28.62125 291.708 
L 255.124375 291.708 
L 255.124375 172.384 
L 28.62125 172.384 
z
" style="fill: #ffffff"/>
   </g>
   <g id="matplotlib.axis_5">
    <g id="xtick_9">
     <g id="line2d_27">
      <g>
       <use xlink:href="#mb73183eade" x="99.744064" y="291.708" style="fill: #6b5f52; stroke: #6b5f52; stroke-width: 0.7"/>
      </g>
     </g>
     <g id="text_19">
      <!-- 2010 -->
      <g style="fill: #6b5f52" transform="translate(91.791564 306.4) scale(0.08 -0.08)">
       <use xlink:href="#SourceSans3-Regular-537"/>
       <use xlink:href="#SourceSans3-Regular-535" transform="translate(49.703125 0)"/>
       <use xlink:href="#SourceSans3-Regular-536" transform="translate(99.40625 0)"/>
       <use xlink:href="#SourceSans3-Regular-535" transform="translate(149.109375 0)"/>
      </g>
     </g>
    </g>
    <g id="xtick_10">
     <g id="line2d_28">
      <g>
       <use xlink:href="#mb73183eade" x="187.685869" y="291.708" style="fill: #6b5f52; stroke: #6b5f52; stroke-width: 0.7"/>
      </g>
     </g>
     <g id="text_20">
      <!-- 2020 -->
      <g style="fill: #6b5f52" transform="translate(179.733369 306.4) scale(0.08 -0.08)">
       <use xlink:href="#SourceSans3-Regular-537"/>
       <use xlink:href="#SourceSans3-Regular-535" transform="translate(49.703125 0)"/>
       <use xlink:href="#SourceSans3-Regular-537" transform="translate(99.40625 0)"/>
       <use xlink:href="#SourceSans3-Regular-535" transform="translate(149.109375 0)"/>
      </g>
     </g>
    </g>
   </g>
   <g id="matplotlib.axis_6">
    <g id="ytick_9">
     <g id="line2d_29">
      <path d="M 28.62125 278.945214 
L 255.124375 278.945214 
" clip-path="url(#pe41f6ed39b)" style="fill: none; stroke: #e7dad0; stroke-width: 0.5; stroke-linecap: round"/>
     </g>
     <g id="line2d_30">
      <g>
       <use xlink:href="#m3c4485ef50" x="28.62125" y="278.945214" style="fill: #6b5f52; stroke: #6b5f52; stroke-width: 0.7"/>
      </g>
     </g>
     <g id="text_21">
      <!-- 80 -->
      <g style="fill: #6b5f52" transform="translate(14.16875 283.041214) scale(0.08 -0.08)">
       <use xlink:href="#SourceSans3-Regular-53d"/>
       <use xlink:href="#SourceSans3-Regular-535" transform="translate(49.703125 0)"/>
      </g>
     </g>
    </g>
    <g id="ytick_10">
     <g id="line2d_31">
      <path d="M 28.62125 265.557789 
L 255.124375 265.557789 
" clip-path="url(#pe41f6ed39b)" style="fill: none; stroke: #e7dad0; stroke-width: 0.5; stroke-linecap: round"/>
     </g>
     <g id="line2d_32">
      <g>
       <use xlink:href="#m3c4485ef50" x="28.62125" y="265.557789" style="fill: #6b5f52; stroke: #6b5f52; stroke-width: 0.7"/>
      </g>
     </g>
     <g id="text_22">
      <!-- 90 -->
      <g style="fill: #6b5f52" transform="translate(14.16875 269.653789) scale(0.08 -0.08)">
       <use xlink:href="#SourceSans3-Regular-53e"/>
       <use xlink:href="#SourceSans3-Regular-535" transform="translate(49.703125 0)"/>
      </g>
     </g>
    </g>
    <g id="ytick_11">
     <g id="line2d_33">
      <path d="M 28.62125 253.58233 
L 255.124375 253.58233 
" clip-path="url(#pe41f6ed39b)" style="fill: none; stroke: #e7dad0; stroke-width: 0.5; stroke-linecap: round"/>
     </g>
     <g id="line2d_34">
      <g>
       <use xlink:href="#m3c4485ef50" x="28.62125" y="253.58233" style="fill: #6b5f52; stroke: #6b5f52; stroke-width: 0.7"/>
      </g>
     </g>
     <g id="text_23">
      <!-- 100 -->
      <g style="fill: #6b5f52" transform="translate(10.1925 257.67833) scale(0.08 -0.08)">
       <use xlink:href="#SourceSans3-Regular-536"/>
       <use xlink:href="#SourceSans3-Regular-535" transform="translate(49.703125 0)"/>
       <use xlink:href="#SourceSans3-Regular-535" transform="translate(99.40625 0)"/>
      </g>
     </g>
    </g>
    <g id="ytick_12">
     <g id="line2d_35">
      <path d="M 28.62125 207.49646 
L 255.124375 207.49646 
" clip-path="url(#pe41f6ed39b)" style="fill: none; stroke: #e7dad0; stroke-width: 0.5; stroke-linecap: round"/>
     </g>
     <g id="line2d_36">
      <g>
       <use xlink:href="#m3c4485ef50" x="28.62125" y="207.49646" style="fill: #6b5f52; stroke: #6b5f52; stroke-width: 0.7"/>
      </g>
     </g>
     <g id="text_24">
      <!-- 150 -->
      <g style="fill: #6b5f52" transform="translate(10.1925 211.59246) scale(0.08 -0.08)">
       <defs>
        <path id="SourceSans3-Regular-53a" d="M 1498 -77 
Q 1171 -77 921 3 
Q 672 83 486 211 
Q 301 339 160 480 
L 416 826 
Q 602 646 845 502 
Q 1088 358 1446 358 
Q 1696 358 1897 473 
Q 2099 589 2220 797 
Q 2342 1005 2342 1293 
Q 2342 1715 2105 1952 
Q 1869 2189 1472 2189 
Q 1267 2189 1113 2125 
Q 960 2061 774 1939 
L 493 2118 
L 627 4083 
L 2669 4083 
L 2669 3629 
L 1088 3629 
L 979 2419 
Q 1126 2496 1273 2541 
Q 1421 2586 1606 2586 
Q 1958 2586 2246 2451 
Q 2534 2317 2704 2032 
Q 2874 1747 2874 1306 
Q 2874 864 2678 553 
Q 2483 243 2169 83 
Q 1856 -77 1498 -77 
z
" transform="scale(0.015625)"/>
       </defs>
       <use xlink:href="#SourceSans3-Regular-536"/>
       <use xlink:href="#SourceSans3-Regular-53a" transform="translate(49.703125 0)"/>
       <use xlink:href="#SourceSans3-Regular-535" transform="translate(99.40625 0)"/>
      </g>
     </g>
    </g>
    <g id="ytick_13">
     <g id="line2d_37">
      <path d="M 28.62125 174.798015 
L 255.124375 174.798015 
" clip-path="url(#pe41f6ed39b)" style="fill: none; stroke: #e7dad0; stroke-width: 0.5; stroke-linecap: round"/>
     </g>
     <g id="line2d_38">
      <g>
       <use xlink:href="#m3c4485ef50" x="28.62125" y="174.798015" style="fill: #6b5f52; stroke: #6b5f52; stroke-width: 0.7"/>
      </g>
     </g>
     <g id="text_25">
      <!-- 200 -->
      <g style="fill: #6b5f52" transform="translate(10.1925 178.894015) scale(0.08 -0.08)">
       <use xlink:href="#SourceSans3-Regular-537"/>
       <use xlink:href="#SourceSans3-Regular-535" transform="translate(49.703125 0)"/>
       <use xlink:href="#SourceSans3-Regular-535" transform="translate(99.40625 0)"/>
      </g>
     </g>
    </g>
   </g>
   <g id="line2d_39">
    <path d="M 38.916847 286.284182 
L 39.591099 284.955879 
L 40.337593 284.676023 
L 41.060007 283.750783 
L 41.806501 283.495479 
L 42.528914 282.039591 
L 43.275408 282.677034 
L 44.021902 281.633733 
L 44.744316 281.317844 
L 45.49081 280.507179 
L 46.213223 285.964019 
L 46.959717 285.146603 
L 47.706211 281.688926 
L 49.151038 279.148315 
L 49.873452 278.474411 
L 50.619946 278.552022 
L 51.342359 278.742315 
L 52.088853 278.163472 
L 52.835347 277.438856 
L 53.55776 276.169709 
L 54.304254 276.350164 
L 55.026668 276.795906 
L 55.773162 275.141116 
L 56.519656 274.656591 
L 57.193908 272.396845 
L 57.940402 275.532668 
L 58.662816 272.674026 
L 59.40931 271.514596 
L 60.131723 271.672242 
L 60.878217 270.798615 
L 61.624711 271.150006 
L 62.347125 270.03393 
L 63.093619 269.249958 
L 63.816032 266.716007 
L 64.562526 268.225666 
L 65.30902 266.056814 
L 65.983273 265.623323 
L 66.729767 263.521877 
L 67.45218 264.512299 
L 68.198674 264.333508 
L 68.921088 263.207496 
L 69.667582 263.630086 
L 70.414076 261.524976 
L 71.136489 262.315712 
L 71.882983 261.098309 
L 72.605397 260.983651 
L 73.351891 259.850741 
L 74.098385 258.020601 
L 74.772637 257.881605 
L 75.519131 256.074222 
L 76.241545 256.527817 
L 76.988039 252.984864 
L 77.710452 254.066511 
L 78.456946 253.342838 
L 79.925854 252.475874 
L 80.672348 251.184398 
L 81.394761 249.481253 
L 82.887749 247.703692 
L 83.586082 245.465554 
L 84.332576 245.527507 
L 85.05499 243.759601 
L 85.801484 244.728118 
L 86.523897 242.733781 
L 87.270391 242.683751 
L 88.016885 243.068838 
L 88.739299 241.984399 
L 89.485793 242.298241 
L 90.208206 242.200852 
L 90.9547 243.394685 
L 91.701194 242.367909 
L 92.375447 243.052417 
L 93.121941 244.332282 
L 93.844354 243.393269 
L 94.590848 241.925282 
L 95.313262 245.867682 
L 96.059756 244.192902 
L 96.806249 242.118599 
L 97.528663 241.793346 
L 98.99757 239.521862 
L 99.744064 238.890731 
L 100.490558 238.622857 
L 103.380212 233.748371 
L 104.102626 231.900636 
L 104.84912 233.017573 
L 105.595614 232.635782 
L 106.318027 230.941486 
L 107.064521 230.080176 
L 107.786935 229.838853 
L 108.533429 230.954061 
L 109.279923 228.681204 
L 109.954175 228.715449 
L 110.700669 227.723248 
L 111.423083 226.290491 
L 112.169577 227.632856 
L 112.89199 228.206361 
L 113.638484 225.886278 
L 114.384978 225.895841 
L 115.107392 225.534892 
L 115.853886 225.508314 
L 116.576299 224.521726 
L 117.322793 221.505332 
L 118.069287 223.064203 
L 118.76762 223.058928 
L 119.514114 221.002658 
L 120.236528 222.644708 
L 120.983022 219.696678 
L 122.451929 218.867509 
L 123.198423 218.248206 
L 123.920837 217.489149 
L 124.667331 217.85503 
L 125.389744 217.859224 
L 126.136238 217.624104 
L 126.882732 215.97265 
L 127.556985 215.588386 
L 128.303479 214.930759 
L 129.025892 215.206046 
L 129.772386 214.573031 
L 130.4948 212.512112 
L 131.241294 212.815881 
L 131.987788 211.851229 
L 132.710201 212.476951 
L 133.456695 211.206488 
L 134.179109 209.621797 
L 134.925603 210.595046 
L 135.672097 211.30008 
L 136.346349 209.966491 
L 137.092843 210.716589 
L 137.815257 210.262384 
L 138.561751 210.992772 
L 139.284164 212.061413 
L 140.030658 210.656489 
L 141.499566 209.87888 
L 142.246059 208.778443 
L 143.714967 210.077578 
L 144.461461 209.209241 
L 145.135714 208.615534 
L 145.882208 207.698012 
L 146.604621 205.639273 
L 147.351115 209.020917 
L 148.073528 207.289731 
L 148.820022 206.514046 
L 149.566516 207.362728 
L 150.28893 206.430832 
L 151.035424 204.808714 
L 151.757837 205.30584 
L 152.504331 203.350411 
L 153.250825 204.973559 
L 154.695652 202.054364 
L 155.418066 203.839251 
L 156.16456 204.299554 
L 156.886973 203.169684 
L 157.633467 201.690105 
L 158.379961 201.475595 
L 159.102375 201.603061 
L 159.848869 202.357467 
L 160.571282 201.364346 
L 161.317776 199.803057 
L 162.738523 200.492934 
L 163.485017 202.220161 
L 164.20743 201.154267 
L 164.953924 200.416195 
L 165.676338 198.639862 
L 166.422832 199.33117 
L 167.169326 198.390061 
L 167.891739 197.672994 
L 168.638233 198.747421 
L 169.360647 199.144891 
L 170.107141 197.716137 
L 170.853635 196.921667 
L 171.527887 197.305781 
L 172.274381 195.953254 
L 172.996795 193.88948 
L 173.743289 193.255266 
L 174.465702 195.819831 
L 175.212196 196.943844 
L 176.681104 194.742132 
L 177.427598 194.38655 
L 178.896505 193.023743 
L 179.642999 194.984546 
L 180.317252 194.870792 
L 181.063746 192.902657 
L 181.786159 192.524556 
L 182.532653 192.446649 
L 184.001561 192.602951 
L 184.748055 191.550746 
L 185.470468 192.366552 
L 186.216962 191.573683 
L 186.939376 191.038025 
L 187.685869 192.152862 
L 188.432363 191.325139 
L 189.130697 191.461259 
L 189.87719 214.930669 
L 190.599604 248.734742 
L 191.346098 236.654633 
L 192.068511 215.411426 
L 192.815005 205.574606 
L 194.283913 199.792545 
L 195.030407 195.178585 
L 195.75282 193.9927 
L 196.499314 191.171993 
L 197.245808 191.83245 
L 197.920061 194.315721 
L 198.666555 194.360734 
L 199.388968 194.975511 
L 200.135462 191.809658 
L 201.60437 190.935009 
L 202.350864 189.919402 
L 203.073277 189.246333 
L 204.542185 189.965837 
L 206.035173 188.69519 
L 206.709425 188.888159 
L 207.455919 189.779678 
L 208.178333 189.961102 
L 208.924827 189.16522 
L 209.64724 187.205544 
L 210.393734 188.213961 
L 211.140228 188.421497 
L 211.862642 187.09251 
L 212.609136 187.149421 
L 213.331549 187.710716 
L 214.078043 187.391924 
L 214.824537 189.626412 
L 216.245284 188.703844 
L 216.967697 188.8847 
L 217.714191 190.492374 
L 218.436605 187.794936 
L 219.183099 189.614831 
L 219.929593 188.508278 
L 220.652006 187.898738 
L 221.3985 188.230033 
L 222.120914 187.06144 
L 222.867408 188.080441 
L 223.613902 187.539034 
L 224.312235 187.588054 
L 225.058729 186.564108 
L 226.527636 184.299709 
L 227.25005 186.67767 
L 227.996544 184.806561 
L 228.743038 183.552638 
L 229.465451 184.069937 
L 230.211945 183.933644 
L 230.934358 181.894339 
L 231.680852 182.823331 
L 233.101599 182.431724 
L 233.848093 182.961994 
L 234.570507 182.06203 
L 235.317 181.718598 
L 236.039414 181.725988 
L 236.785908 180.515793 
L 239.001309 179.296902 
L 239.723723 180.058838 
L 240.470217 178.257912 
L 241.216711 178.137673 
L 241.890963 178.335126 
L 242.637457 179.621976 
L 243.359871 177.807818 
L 244.106365 178.934518 
L 244.828778 179.720425 
L 244.828778 179.720425 
" clip-path="url(#pe41f6ed39b)" style="fill: none; stroke: #2a231d; stroke-linecap: round"/>
   </g>
   <g id="patch_9">
    <path d="M 28.62125 291.708 
L 28.62125 172.384 
" style="fill: none; stroke: #6b5f52; stroke-width: 0.7; stroke-linejoin: miter; stroke-linecap: square"/>
   </g>
   <g id="patch_10">
    <path d="M 28.62125 291.708 
L 255.124375 291.708 
" style="fill: none; stroke: #6b5f52; stroke-width: 0.7; stroke-linejoin: miter; stroke-linecap: square"/>
   </g>
   <g id="text_26">
    <!-- PBI, Perú -->
    <g style="fill: #2a231d" transform="translate(28.62125 166.384) scale(0.085 -0.085)">
     <defs>
      <path id="SourceSans3-Regular-208" d="M 1434 -77 
Q 941 -77 713 233 
Q 486 544 486 1139 
L 486 3110 
L 1011 3110 
L 1011 1210 
Q 1011 774 1148 579 
Q 1286 384 1594 384 
Q 1830 384 2019 509 
Q 2208 634 2432 902 
L 2432 3110 
L 2957 3110 
L 2957 0 
L 2522 0 
L 2477 486 
L 2458 486 
Q 2246 230 2000 76 
Q 1754 -77 1434 -77 
z
M 1241 3648 
L 2067 4704 
L 2643 4704 
L 2675 4646 
L 1664 3648 
L 1241 3648 
z
" transform="scale(0.015625)"/>
     </defs>
     <use xlink:href="#SourceSans3-Regular-11"/>
     <use xlink:href="#SourceSans3-Regular-3" transform="translate(56.59375 0)"/>
     <use xlink:href="#SourceSans3-Regular-a" transform="translate(115.390625 0)"/>
     <use xlink:href="#SourceSans3-Regular-56c" transform="translate(141.6875 0)"/>
     <use xlink:href="#SourceSans3-Regular-1" transform="translate(166.59375 0)"/>
     <use xlink:href="#SourceSans3-Regular-11" transform="translate(186.59375 0)"/>
     <use xlink:href="#SourceSans3-Regular-20" transform="translate(240.78125 0)"/>
     <use xlink:href="#SourceSans3-Regular-2d" transform="translate(290.375 0)"/>
     <use xlink:href="#SourceSans3-Regular-208" transform="translate(325.078125 0)"/>
    </g>
   </g>
  </g>
  <g id="axes_4">
   <g id="patch_11">
    <path d="M 274.616875 291.708 
L 501.12 291.708 
L 501.12 172.384 
L 274.616875 172.384 
z
" style="fill: #ffffff"/>
   </g>
   <g id="matplotlib.axis_7">
    <g id="xtick_11">
     <g id="line2d_40">
      <g>
       <use xlink:href="#mb73183eade" x="311.273623" y="291.708" style="fill: #6b5f52; stroke: #6b5f52; stroke-width: 0.7"/>
      </g>
     </g>
     <g id="text_27">
      <!-- 2000 -->
      <g style="fill: #6b5f52" transform="translate(303.321123 306.4) scale(0.08 -0.08)">
       <use xlink:href="#SourceSans3-Regular-537"/>
       <use xlink:href="#SourceSans3-Regular-535" transform="translate(49.703125 0)"/>
       <use xlink:href="#SourceSans3-Regular-535" transform="translate(99.40625 0)"/>
       <use xlink:href="#SourceSans3-Regular-535" transform="translate(149.109375 0)"/>
      </g>
     </g>
    </g>
    <g id="xtick_12">
     <g id="line2d_41">
      <g>
       <use xlink:href="#mb73183eade" x="378.614383" y="291.708" style="fill: #6b5f52; stroke: #6b5f52; stroke-width: 0.7"/>
      </g>
     </g>
     <g id="text_28">
      <!-- 2010 -->
      <g style="fill: #6b5f52" transform="translate(370.661883 306.4) scale(0.08 -0.08)">
       <use xlink:href="#SourceSans3-Regular-537"/>
       <use xlink:href="#SourceSans3-Regular-535" transform="translate(49.703125 0)"/>
       <use xlink:href="#SourceSans3-Regular-536" transform="translate(99.40625 0)"/>
       <use xlink:href="#SourceSans3-Regular-535" transform="translate(149.109375 0)"/>
      </g>
     </g>
    </g>
    <g id="xtick_13">
     <g id="line2d_42">
      <g>
       <use xlink:href="#mb73183eade" x="445.936708" y="291.708" style="fill: #6b5f52; stroke: #6b5f52; stroke-width: 0.7"/>
      </g>
     </g>
     <g id="text_29">
      <!-- 2020 -->
      <g style="fill: #6b5f52" transform="translate(437.984208 306.4) scale(0.08 -0.08)">
       <use xlink:href="#SourceSans3-Regular-537"/>
       <use xlink:href="#SourceSans3-Regular-535" transform="translate(49.703125 0)"/>
       <use xlink:href="#SourceSans3-Regular-537" transform="translate(99.40625 0)"/>
       <use xlink:href="#SourceSans3-Regular-535" transform="translate(149.109375 0)"/>
      </g>
     </g>
    </g>
   </g>
   <g id="matplotlib.axis_8">
    <g id="ytick_14">
     <g id="line2d_43">
      <path d="M 274.616875 268.886629 
L 501.12 268.886629 
" clip-path="url(#pa796a945d7)" style="fill: none; stroke: #e7dad0; stroke-width: 0.5; stroke-linecap: round"/>
     </g>
     <g id="line2d_44">
      <g>
       <use xlink:href="#m3c4485ef50" x="274.616875" y="268.886629" style="fill: #6b5f52; stroke: #6b5f52; stroke-width: 0.7"/>
      </g>
     </g>
     <g id="text_30">
      <!-- 50 -->
      <g style="fill: #6b5f52" transform="translate(260.164375 272.982629) scale(0.08 -0.08)">
       <use xlink:href="#SourceSans3-Regular-53a"/>
       <use xlink:href="#SourceSans3-Regular-535" transform="translate(49.703125 0)"/>
      </g>
     </g>
    </g>
    <g id="ytick_15">
     <g id="line2d_45">
      <path d="M 274.616875 234.118333 
L 501.12 234.118333 
" clip-path="url(#pa796a945d7)" style="fill: none; stroke: #e7dad0; stroke-width: 0.5; stroke-linecap: round"/>
     </g>
     <g id="line2d_46">
      <g>
       <use xlink:href="#m3c4485ef50" x="274.616875" y="234.118333" style="fill: #6b5f52; stroke: #6b5f52; stroke-width: 0.7"/>
      </g>
     </g>
     <g id="text_31">
      <!-- 70 -->
      <g style="fill: #6b5f52" transform="translate(260.164375 238.214333) scale(0.08 -0.08)">
       <use xlink:href="#SourceSans3-Regular-53c"/>
       <use xlink:href="#SourceSans3-Regular-535" transform="translate(49.703125 0)"/>
      </g>
     </g>
    </g>
    <g id="ytick_16">
     <g id="line2d_47">
      <path d="M 274.616875 208.149551 
L 501.12 208.149551 
" clip-path="url(#pa796a945d7)" style="fill: none; stroke: #e7dad0; stroke-width: 0.5; stroke-linecap: round"/>
     </g>
     <g id="line2d_48">
      <g>
       <use xlink:href="#m3c4485ef50" x="274.616875" y="208.149551" style="fill: #6b5f52; stroke: #6b5f52; stroke-width: 0.7"/>
      </g>
     </g>
     <g id="text_32">
      <!-- 90 -->
      <g style="fill: #6b5f52" transform="translate(260.164375 212.245551) scale(0.08 -0.08)">
       <use xlink:href="#SourceSans3-Regular-53e"/>
       <use xlink:href="#SourceSans3-Regular-535" transform="translate(49.703125 0)"/>
      </g>
     </g>
    </g>
   </g>
   <g id="line2d_49">
    <path d="M 284.912472 286.284182 
L 286.018534 283.294947 
L 287.143031 281.649552 
L 287.696062 281.169683 
L 288.267527 279.759567 
L 288.838993 278.808815 
L 289.392024 278.474431 
L 289.963489 277.718177 
L 290.516521 277.235737 
L 291.087986 275.997465 
L 291.659452 275.501508 
L 292.175614 275.409653 
L 292.74708 274.101499 
L 293.300111 273.702121 
L 293.871576 272.924778 
L 294.424607 271.808453 
L 294.996073 270.955666 
L 296.692035 270.263396 
L 297.245066 270.183193 
L 297.816532 269.526041 
L 298.387997 268.593753 
L 299.475625 265.97196 
L 301.724619 263.53742 
L 302.296084 263.264531 
L 302.849115 263.821935 
L 303.420581 264.168541 
L 303.973612 264.137119 
L 304.545077 263.498385 
L 305.116543 263.4839 
L 305.632705 263.158965 
L 307.328668 261.435136 
L 309.02463 260.801411 
L 309.577661 260.327197 
L 310.149126 260.452065 
L 310.702158 260.165843 
L 311.273623 259.717834 
L 311.845089 259.646245 
L 313.504182 258.066228 
L 314.628679 257.982504 
L 316.324641 256.394825 
L 316.896106 256.154686 
L 318.020603 255.92948 
L 319.108231 255.482498 
L 319.679697 254.958994 
L 320.232728 255.390096 
L 321.92869 255.246027 
L 322.500155 255.559578 
L 323.624652 255.456031 
L 324.177683 255.966577 
L 324.749149 256.061159 
L 325.320614 256.599809 
L 325.836777 256.640451 
L 326.408242 256.08559 
L 326.961273 255.334708 
L 327.532739 255.191362 
L 328.08577 255.426482 
L 329.228701 255.286833 
L 329.781732 254.798655 
L 330.353198 254.059422 
L 330.906229 254.472927 
L 331.477694 254.506563 
L 332.04916 254.267709 
L 332.565322 253.784397 
L 333.136788 252.63578 
L 334.261285 252.721444 
L 334.814316 253.211496 
L 335.385781 253.3658 
L 335.957247 253.351897 
L 336.510278 252.776294 
L 337.081743 252.725639 
L 337.634775 252.552513 
L 338.777706 251.417542 
L 339.312302 250.301321 
L 339.883768 249.826623 
L 340.436799 249.850154 
L 341.008265 249.485167 
L 341.561296 248.90421 
L 342.132761 248.704861 
L 343.828724 248.722017 
L 344.381755 248.425869 
L 344.95322 248.435537 
L 345.524686 248.332103 
L 346.040848 248.574825 
L 346.612314 247.905141 
L 347.73681 247.651973 
L 348.289841 247.379802 
L 348.861307 247.271762 
L 349.985804 247.554985 
L 351.1103 247.3352 
L 352.253231 246.387943 
L 353.340859 245.351628 
L 353.89389 244.825967 
L 354.465356 245.372955 
L 355.589853 245.686267 
L 356.714349 245.514103 
L 357.285815 245.468864 
L 357.838846 245.760832 
L 358.981777 245.724423 
L 360.622436 244.912846 
L 362.318398 243.431402 
L 362.889864 243.29003 
L 363.442895 242.659051 
L 364.014361 242.335082 
L 364.567392 242.220441 
L 365.138857 241.753297 
L 365.710323 241.524107 
L 366.816385 239.520098 
L 367.369416 239.360863 
L 367.940882 238.979765 
L 368.493913 238.187564 
L 371.314372 235.471915 
L 371.885837 235.100358 
L 372.457303 234.991112 
L 372.973465 235.068421 
L 373.544931 234.696868 
L 374.669427 234.721673 
L 375.222459 235.073161 
L 375.793924 234.880433 
L 376.918421 235.1851 
L 377.489886 235.058466 
L 378.042917 235.174333 
L 380.273476 233.919375 
L 380.826508 233.893177 
L 381.951004 233.388801 
L 383.093935 232.736313 
L 383.646966 232.769392 
L 384.218432 232.91594 
L 384.771463 232.907771 
L 385.342929 232.723523 
L 386.430557 231.926557 
L 387.555053 230.502006 
L 388.126519 230.526505 
L 388.67955 230.424109 
L 389.251015 229.607968 
L 390.375512 228.988915 
L 390.946978 228.664085 
L 391.500009 228.219248 
L 392.071474 227.93969 
L 392.64294 228.044442 
L 393.177537 227.709251 
L 393.749002 226.920728 
L 394.302033 226.372933 
L 395.997995 226.276969 
L 397.122492 225.193689 
L 398.246989 225.504737 
L 398.818454 225.237686 
L 399.38992 225.118492 
L 399.906082 225.211532 
L 400.477548 224.276667 
L 402.155076 223.546192 
L 403.298007 222.42151 
L 404.422503 222.269626 
L 404.975534 222.495388 
L 405.547 222.324187 
L 406.118465 221.997301 
L 407.206093 220.84385 
L 407.759125 220.438323 
L 408.883621 220.041706 
L 409.455087 219.594924 
L 410.026552 219.683434 
L 410.579583 219.517716 
L 411.151049 219.126974 
L 411.70408 219.281531 
L 413.363174 218.556359 
L 413.934639 217.769222 
L 414.48767 217.36649 
L 415.059136 216.78496 
L 416.183632 215.977356 
L 416.755098 215.588296 
L 417.308129 215.559844 
L 417.879595 215.412391 
L 420.110154 214.033965 
L 420.681619 213.41776 
L 421.23465 213.405973 
L 422.359147 213.045598 
L 422.930612 212.961162 
L 423.502078 212.5916 
L 424.055109 212.378477 
L 425.179606 211.652935 
L 426.838699 210.729305 
L 427.410165 209.389998 
L 427.963196 209.656995 
L 428.534661 210.095366 
L 429.087693 210.26 
L 429.659158 210.055311 
L 430.230624 209.363012 
L 430.783655 209.379308 
L 431.35512 209.865329 
L 431.908151 210.06934 
L 433.567245 209.517575 
L 434.13871 209.015443 
L 434.691742 209.15718 
L 435.263207 209.138111 
L 436.387704 208.398713 
L 440.295791 207.467905 
L 440.867256 206.718833 
L 441.991753 206.359872 
L 442.544784 206.449058 
L 443.116249 206.239159 
L 445.365243 205.942745 
L 445.936708 205.721314 
L 447.042771 205.518924 
L 447.614236 204.853547 
L 448.738733 204.534796 
L 449.291764 204.810125 
L 449.86323 204.333123 
L 450.434695 204.447098 
L 450.987726 204.306296 
L 451.559192 204.288963 
L 452.112223 203.752538 
L 452.683688 203.702192 
L 453.255154 202.937377 
L 453.771316 203.066896 
L 454.342782 202.203079 
L 454.895813 202.311316 
L 455.467279 202.036244 
L 456.02031 201.500647 
L 457.163241 199.451977 
L 457.716272 199.039038 
L 458.287737 198.437679 
L 458.840769 198.068224 
L 459.412234 197.262455 
L 459.9837 197.223953 
L 460.499862 196.90262 
L 461.071327 195.381806 
L 461.624359 194.392614 
L 462.195824 193.996554 
L 462.748855 192.773524 
L 463.320321 191.805829 
L 464.444818 190.580802 
L 465.016283 190.222189 
L 465.569314 189.688682 
L 466.14078 188.871545 
L 467.228408 188.33393 
L 467.799873 187.04673 
L 468.352904 186.473537 
L 468.92437 186.145606 
L 469.477401 186.303586 
L 470.620332 185.512343 
L 471.173363 185.495395 
L 471.744829 185.829124 
L 472.29786 185.997756 
L 472.869325 185.579306 
L 473.440791 185.559457 
L 473.975388 184.984971 
L 474.546853 183.947183 
L 475.67135 184.094361 
L 476.795847 183.724787 
L 477.367312 183.431565 
L 477.920343 183.677332 
L 478.491809 183.773583 
L 479.616305 183.567207 
L 480.187771 183.663679 
L 480.703933 183.469586 
L 481.275399 182.635806 
L 481.82843 182.307664 
L 482.399896 182.366036 
L 483.524392 181.994289 
L 484.095858 182.29465 
L 484.648889 182.283127 
L 485.220354 182.386126 
L 485.773386 182.271716 
L 486.344851 182.019781 
L 486.916317 181.920871 
L 487.432479 181.206608 
L 488.003945 178.777439 
L 488.556976 178.240863 
L 489.128441 178.407669 
L 490.252938 177.876827 
L 490.824403 177.807818 
L 490.824403 177.807818 
" clip-path="url(#pa796a945d7)" style="fill: none; stroke: #2a231d; stroke-linecap: round"/>
   </g>
   <g id="patch_12">
    <path d="M 274.616875 291.708 
L 274.616875 172.384 
" style="fill: none; stroke: #6b5f52; stroke-width: 0.7; stroke-linejoin: miter; stroke-linecap: square"/>
   </g>
   <g id="patch_13">
    <path d="M 274.616875 291.708 
L 501.12 291.708 
" style="fill: none; stroke: #6b5f52; stroke-width: 0.7; stroke-linejoin: miter; stroke-linecap: square"/>
   </g>
   <g id="text_33">
    <!-- IPC, Perú -->
    <g style="fill: #2a231d" transform="translate(274.616875 166.384) scale(0.085 -0.085)">
     <defs>
      <path id="SourceSans3-Regular-4" d="M 2170 -77 
Q 1645 -77 1225 182 
Q 806 442 569 928 
Q 333 1414 333 2099 
Q 333 2605 470 3008 
Q 608 3411 864 3696 
Q 1120 3981 1456 4128 
Q 1792 4275 2195 4275 
Q 2573 4275 2870 4121 
Q 3168 3968 3347 3757 
L 3059 3430 
Q 2893 3610 2678 3709 
Q 2464 3808 2202 3808 
Q 1811 3808 1513 3600 
Q 1216 3392 1049 3011 
Q 883 2630 883 2112 
Q 883 1581 1043 1197 
Q 1203 813 1504 605 
Q 1805 397 2208 397 
Q 2502 397 2736 509 
Q 2970 621 3162 838 
L 3443 525 
Q 3194 237 2886 80 
Q 2579 -77 2170 -77 
z
" transform="scale(0.015625)"/>
     </defs>
     <use xlink:href="#SourceSans3-Regular-a"/>
     <use xlink:href="#SourceSans3-Regular-11" transform="translate(26.296875 0)"/>
     <use xlink:href="#SourceSans3-Regular-4" transform="translate(82.890625 0)"/>
     <use xlink:href="#SourceSans3-Regular-56c" transform="translate(139.984375 0)"/>
     <use xlink:href="#SourceSans3-Regular-1" transform="translate(164.890625 0)"/>
     <use xlink:href="#SourceSans3-Regular-11" transform="translate(184.890625 0)"/>
     <use xlink:href="#SourceSans3-Regular-20" transform="translate(239.078125 0)"/>
     <use xlink:href="#SourceSans3-Regular-2d" transform="translate(288.671875 0)"/>
     <use xlink:href="#SourceSans3-Regular-208" transform="translate(323.375 0)"/>
    </g>
   </g>
  </g>
 </g>
 <defs>
  <clipPath id="p49d38a1fc8">
   <rect x="28.62125" y="16.144" width="226.503125" height="119.324"/>
  </clipPath>
  <clipPath id="pad1fca7bb0">
   <rect x="274.616875" y="16.144" width="226.503125" height="119.324"/>
  </clipPath>
  <clipPath id="pe41f6ed39b">
   <rect x="28.62125" y="172.384" width="226.503125" height="119.324"/>
  </clipPath>
  <clipPath id="pa796a945d7">
   <rect x="274.616875" y="172.384" width="226.503125" height="119.324"/>
  </clipPath>
 </defs>
</svg>
