<?xml version="1.0" encoding="utf-8" standalone="no"?>
<!DOCTYPE svg PUBLIC "-//W3C//DTD SVG 1.1//EN"
  "http://www.w3.org/Graphics/SVG/1.1/DTD/svg11.dtd">
<svg xmlns:xlink="http://www.w3.org/1999/xlink" width="502.56pt" height="202.32pt" viewBox="0 0 502.56 202.32" xmlns="http://www.w3.org/2000/svg" version="1.1" xmlns:c2pa="http://c2pa.org/manifest">
 <metadata><c2pa:manifest>AAAWgmp1bWIAAAAeanVtZGMycGEAEQAQgAAAqgA4m3EDYzJwYQAAABZcanVtYgAAAEdqdW1kYzJtYQARABCAAACqADibcQN1cm46YzJwYTowMjFjNTY2OS1hMmY3LTQ3MWItYjBkOS05OWU2MzhhZGFiMzkAAAADl2p1bWIAAAApanVtZGMyYXMAEQAQgAAAqgA4m3EDYzJwYS5hc3NlcnRpb25zAAAAALxqdW1iAAAARGp1bWRjYm9yABEAEIAAAKoAOJtxE2MycGEuaW5ncmVkaWVudC52MwAAAAAYYzJzaJEcd9LiEpbNi31W/4EQeeMAAABwY2JvcqNpZGM6Zm9ybWF0bWltYWdlL3N2Zyt4bWxqaW5zdGFuY2VJRHgseG1wOmlpZDozODY0ZTJhMi0yYzM1LTRmMjgtYWEzMC1kMzg2ZDY0YzNjODlscmVsYXRpb25zaGlwaHBhcmVudE9mAAAB4mp1bWIAAABBanVtZGNib3IAEQAQgAAAqgA4m3ETYzJwYS5hY3Rpb25zLnYyAAAAABhjMnNoethYPGoZXRCSAtoOnEHbBgAAAZljYm9yomdhY3Rpb25zgqJmYWN0aW9ua2MycGEub3BlbmVkanBhcmFtZXRlcnOha2luZ3JlZGllbnRzgaJjdXJseC1zZWxmI2p1bWJmPWMycGEuYXNzZXJ0aW9ucy9jMnBhLmluZ3JlZGllbnQudjNkaGFzaFggpQ3PaQXci2mlwyXL/prFyEtnmVyJNiV+BKa32PxzdJukZmFjdGlvbngdY29tLmFudGhyb3BpYy5jbGF1ZGUucHJvdmlkZWRqcGFyYW1ldGVyc6F4H2NvbS5hbnRocm9waWMub3JpZ2luLWNvbmZpZGVuY2VndW5rbm93bmtkZXNjcmlwdGlvbnhmQ2xhdWRlIHByb3ZpZGVkIHRoaXMgZmlsZSBhdCB0aGUgcmVxdWVzdCBvZiBhIHVzZXIgYW5kIG1heSBoYXZlIGNyZWF0ZWQgb3IgbW9kaWZpZWQgdGhlIGZpbGUgY29udGVudHMubXNvZnR3YXJlQWdlbnShZG5hbWVmQ2xhdWRlcmFsbEFjdGlvbnNJbmNsdWRlZPUAAADIanVtYgAAAEBqdW1kY2JvcgARABCAAACqADibcRNjMnBhLmhhc2guZGF0YQAAAAAYYzJzaIkrsH3H5VCSRXzlUicVgT4AAACAY2JvcqVjYWxnZnNoYTI1NmNwYWRMAAAAAAAAAAAAAAAAZGhhc2hYIO9THxUokc+3gETsglbmtiZnHxmnfG0QgpEjFThtTaHBZG5hbWVuanVtYmYgbWFuaWZlc3RqZXhjbHVzaW9uc4GiZXN0YXJ0GQF9Zmxlbmd0aBkeBAAAAj5qdW1iAAAAJ2p1bWRjMmNsABEAEIAAAKoAOJtxA2MycGEuY2xhaW0udjIAAAACD2Nib3KlY2FsZ2ZzaGEyNTZpc2lnbmF0dXJleE1zZWxmI2p1bWJmPS9jMnBhL3VybjpjMnBhOjAyMWM1NjY5LWEyZjctNDcxYi1iMGQ5LTk5ZTYzOGFkYWIzOS9jMnBhLnNpZ25hdHVyZWppbnN0YW5jZUlEeCx4bXA6aWlkOmJiNmU0OTk4LTU3M2ItNDJjZC05M2ZjLTM5NGMyZWY5NDdkMnJjcmVhdGVkX2Fzc2VydGlvbnODomN1cmx4LXNlbGYjanVtYmY9YzJwYS5hc3NlcnRpb25zL2MycGEuaW5ncmVkaWVudC52M2RoYXNoWCClDc9pBdyLaaXDJcv+msXIS2eZXIk2JX4EprfY/HN0m6JjdXJseCpzZWxmI2p1bWJmPWMycGEuYXNzZXJ0aW9ucy9jMnBhLmFjdGlvbnMudjJkaGFzaFggUeLNyShCDdrEa5OA6gFdEqmJbyAKcuQYIFI7MfU4sOWiY3VybHgpc2VsZiNqdW1iZj1jMnBhLmFzc2VydGlvbnMvYzJwYS5oYXNoLmRhdGFkaGFzaFggRi0JuBG3yXuifkXpKXwtrLbcox+FiMRTyIzo6BrEZiJ0Y2xhaW1fZ2VuZXJhdG9yX2luZm+jZG5hbWVvQW50aHJvcGljIEZpbGVzZ3ZlcnNpb25lMS4wLjBrc3BlY1ZlcnNpb25lMi40LjAAABA4anVtYgAAAChqdW1kYzJjcwARABCAAACqADibcQNjMnBhLnNpZ25hdHVyZQAAABAIY2JvctKEWQISogEmGCFZAgowggIGMIIBjaADAgECAhRA5aAK7sI50L64g/oGQgU9Z1UTADAKBggqhkjOPQQDAzBJMRcwFQYDVQQKEw5BbnRocm9waWMsIFBCQzEuMCwGA1UEAxMlQW50aHJvcGljIENvbnRlbnQgQ3JlZGVudGlhbHMgUm9vdCBDQTAeFw0yNjA4MDcxODQzNTZaFw0yODA4MDYxOTQzNTZaMEQxFzAVBgNVBAoTDkFudGhyb3BpYywgUEJDMSkwJwYDVQQDEyBBbnRocm9waWMgQ2xhdWRlIENvbnRlbnQgU2lnbmluZzBZMBMGByqGSM49AgEGCCqGSM49AwEHA0IABJh6CmvLUBgFFNU0vUKlOVtE6djd17L5SuwX0LemFisBM3dkd/3cyjxFA3Qo5S46fX0/ihY0VZ7mfb9KF703t5OjWDBWMA4GA1UdDwEB/wQEAwIHgDAVBgNVHSUEDjAMBgorBgEEAYPoXgIBMAwGA1UdEwEB/wQCMAAwHwYDVR0jBBgwFoAUzlHiBIFOZFsj+OPEz5o+nMHXXMIwCgYIKoZIzj0EAwMDZwAwZAIwMXMdFJ4BetLLVY7ORuE9noqbbAZOZn/aArXyTwFAZfKrPzxF2vPoJNf1+UCdg1XGAjBwX1zd9WGqYkqmL5SFqw1QySjr1zJfpJM9+1rdDwSPLMOPOjKuiXjoU/pUUeG9RwmhY3BhZFkNngAAAAAAAAAAAAAAAAAAAAAAAAAAAAAAAAAAAAAAAAAAAAAAAAAAAAAAAAAAAAAAAAAAAAAAAAAAAAAAAAAAAAAAAAAAAAAAAAAAAAAAAAAAAAAAAAAAAAAAAAAAAAAAAAAAAAAAAAAAAAAAAAAAAAAAAAAAAAAAAAAAAAAAAAAAAAAAAAAAAAAAAAAAAAAAAAAAAAAAAAAAAAAAAAAAAAAAAAAAAAAAAAAAAAAAAAAAAAAAAAAAAAAAAAAAAAAAAAAAAAAAAAAAAAAAAAAAAAAAAAAAAAAAAAAAAAAAAAAAAAAAAAAAAAAAAAAAAAAAAAAAAAAAAAAAAAAAAAAAAAAAAAAAAAAAAAAAAAAAAAAAAAAAAAAAAAAAAAAAAAAAAAAAAAAAAAAAAAAAAAAAAAAAAAAAAAAAAAAAAAAAAAAAAAAAAAAAAAAAAAAAAAAAAAAAAAAAAAAAAAAAAAAAAAAAAAAAAAAAAAAAAAAAAAAAAAAAAAAAAAAAAAAAAAAAAAAAAAAAAAAAAAAAAAAAAAAAAAAAAAAAAAAAAAAAAAAAAAAAAAAAAAAAAAAAAAAAAAAAAAAAAAAAAAAAAAAAAAAAAAAAAAAAAAAAAAAAAAAAAAAAAAAAAAAAAAAAAAAAAAAAAAAAAAAAAAAAAAAAAAAAAAAAAAAAAAAAAAAAAAAAAAAAAAAAAAAAAAAAAAAAAAAAAAAAAAAAAAAAAAAAAAAAAAAAAAAAAAAAAAAAAAAAAAAAAAAAAAAAAAAAAAAAAAAAAAAAAAAAAAAAAAAAAAAAAAAAAAAAAAAAAAAAAAAAAAAAAAAAAAAAAAAAAAAAAAAAAAAAAAAAAAAAAAAAAAAAAAAAAAAAAAAAAAAAAAAAAAAAAAAAAAAAAAAAAAAAAAAAAAAAAAAAAAAAAAAAAAAAAAAAAAAAAAAAAAAAAAAAAAAAAAAAAAAAAAAAAAAAAAAAAAAAAAAAAAAAAAAAAAAAAAAAAAAAAAAAAAAAAAAAAAAAAAAAAAAAAAAAAAAAAAAAAAAAAAAAAAAAAAAAAAAAAAAAAAAAAAAAAAAAAAAAAAAAAAAAAAAAAAAAAAAAAAAAAAAAAAAAAAAAAAAAAAAAAAAAAAAAAAAAAAAAAAAAAAAAAAAAAAAAAAAAAAAAAAAAAAAAAAAAAAAAAAAAAAAAAAAAAAAAAAAAAAAAAAAAAAAAAAAAAAAAAAAAAAAAAAAAAAAAAAAAAAAAAAAAAAAAAAAAAAAAAAAAAAAAAAAAAAAAAAAAAAAAAAAAAAAAAAAAAAAAAAAAAAAAAAAAAAAAAAAAAAAAAAAAAAAAAAAAAAAAAAAAAAAAAAAAAAAAAAAAAAAAAAAAAAAAAAAAAAAAAAAAAAAAAAAAAAAAAAAAAAAAAAAAAAAAAAAAAAAAAAAAAAAAAAAAAAAAAAAAAAAAAAAAAAAAAAAAAAAAAAAAAAAAAAAAAAAAAAAAAAAAAAAAAAAAAAAAAAAAAAAAAAAAAAAAAAAAAAAAAAAAAAAAAAAAAAAAAAAAAAAAAAAAAAAAAAAAAAAAAAAAAAAAAAAAAAAAAAAAAAAAAAAAAAAAAAAAAAAAAAAAAAAAAAAAAAAAAAAAAAAAAAAAAAAAAAAAAAAAAAAAAAAAAAAAAAAAAAAAAAAAAAAAAAAAAAAAAAAAAAAAAAAAAAAAAAAAAAAAAAAAAAAAAAAAAAAAAAAAAAAAAAAAAAAAAAAAAAAAAAAAAAAAAAAAAAAAAAAAAAAAAAAAAAAAAAAAAAAAAAAAAAAAAAAAAAAAAAAAAAAAAAAAAAAAAAAAAAAAAAAAAAAAAAAAAAAAAAAAAAAAAAAAAAAAAAAAAAAAAAAAAAAAAAAAAAAAAAAAAAAAAAAAAAAAAAAAAAAAAAAAAAAAAAAAAAAAAAAAAAAAAAAAAAAAAAAAAAAAAAAAAAAAAAAAAAAAAAAAAAAAAAAAAAAAAAAAAAAAAAAAAAAAAAAAAAAAAAAAAAAAAAAAAAAAAAAAAAAAAAAAAAAAAAAAAAAAAAAAAAAAAAAAAAAAAAAAAAAAAAAAAAAAAAAAAAAAAAAAAAAAAAAAAAAAAAAAAAAAAAAAAAAAAAAAAAAAAAAAAAAAAAAAAAAAAAAAAAAAAAAAAAAAAAAAAAAAAAAAAAAAAAAAAAAAAAAAAAAAAAAAAAAAAAAAAAAAAAAAAAAAAAAAAAAAAAAAAAAAAAAAAAAAAAAAAAAAAAAAAAAAAAAAAAAAAAAAAAAAAAAAAAAAAAAAAAAAAAAAAAAAAAAAAAAAAAAAAAAAAAAAAAAAAAAAAAAAAAAAAAAAAAAAAAAAAAAAAAAAAAAAAAAAAAAAAAAAAAAAAAAAAAAAAAAAAAAAAAAAAAAAAAAAAAAAAAAAAAAAAAAAAAAAAAAAAAAAAAAAAAAAAAAAAAAAAAAAAAAAAAAAAAAAAAAAAAAAAAAAAAAAAAAAAAAAAAAAAAAAAAAAAAAAAAAAAAAAAAAAAAAAAAAAAAAAAAAAAAAAAAAAAAAAAAAAAAAAAAAAAAAAAAAAAAAAAAAAAAAAAAAAAAAAAAAAAAAAAAAAAAAAAAAAAAAAAAAAAAAAAAAAAAAAAAAAAAAAAAAAAAAAAAAAAAAAAAAAAAAAAAAAAAAAAAAAAAAAAAAAAAAAAAAAAAAAAAAAAAAAAAAAAAAAAAAAAAAAAAAAAAAAAAAAAAAAAAAAAAAAAAAAAAAAAAAAAAAAAAAAAAAAAAAAAAAAAAAAAAAAAAAAAAAAAAAAAAAAAAAAAAAAAAAAAAAAAAAAAAAAAAAAAAAAAAAAAAAAAAAAAAAAAAAAAAAAAAAAAAAAAAAAAAAAAAAAAAAAAAAAAAAAAAAAAAAAAAAAAAAAAAAAAAAAAAAAAAAAAAAAAAAAAAAAAAAAAAAAAAAAAAAAAAAAAAAAAAAAAAAAAAAAAAAAAAAAAAAAAAAAAAAAAAAAAAAAAAAAAAAAAAAAAAAAAAAAAAAAAAAAAAAAAAAAAAAAAAAAAAAAAAAAAAAAAAAAAAAAAAAAAAAAAAAAAAAAAAAAAAAAAAAAAAAAAAAAAAAAAAAAAAAAAAAAAAAAAAAAAAAAAAAAAAAAAAAAAAAAAAAAAAAAAAAAAAAAAAAAAAAAAAAAAAAAAAAAAAAAAAAAAAAAAAAAAAAAAAAAAAAAAAAAAAAAAAAAAAAAAAAAAAAAAAAAAAAAAAAAAAAAAAAAAAAAAAAAAAAAAAAAAAAAAAAAAAAAAAAAAAAAAAAAAAAAAAAAAAAAAAAAAAAAAAAAAAAAAAAAAAAAAAAAAAAAAAAAAAAAAAAAAAAAAAAAAAAAAAAAAAAAAAAAAAAAAAAAAAAAAAAAAAAAAAAAAAAAAAAAAAAAAAAAAAAAAAAAAAAAAAAAAAAAAAAAAAAAAAAAAAAAAAAAAAAAAAAAAAAAAAAAAAAAAAAAAAAAAAAAAAAAAAAAAAAAAAAAAAAAAAAAAAAAAAAAAAAAAAAAAAAAAAAAAAAAAAAAAAAAAAAAAAAAAAAAAAAAAAAAAAAAAAAAAAAAAAAAAAAAAAAAAAAAAAAAAAAAAAAAAAAAAAAAAAAAAAAAAAAAAAAAAAAAAAAAAAAAAAAAAAAAAAAAAAAAAAAAAAAAAAAAAAAAAAAAAAAAAAAAAAAAAAAAAAAAAAAAAAAAAAAAAAAAAAAAAAAAAAAAAAAAAAAAAAAAAAAAAAAAAAAAAAAAAAAAAAAAAAAAAAAAAAAAAAAAAAAAAAAAAAAAAAAAAAAAAAAAAAAAAAAAAAAAAAAAAAAAAAAAAAAAAAAAAAAAAAAAAAAAAAAAAAAAAAAAAAAAAAAAAAAAAAAAAAAAAAAAAAAAAAAAAAAAAAAAAAAAAAAAAAAAAAAAAAAAAAAAAAAAAAAAAAAAAAAAAAAAAAAAAAAAAAAAAAAAAAAAAAAAAAAAAAAAAAAAAAAAAAAAAAAAAAAAAAAAAAAAAAAAAAAAAAAAAAAAAAAAAAAAAAAAAAAAAAAAAAAAAAAAAAAAAAAAAAAAAAAAAAAAAAAAAAAAAAAAAAAAAAAAAAAAAAAAAAAAAAAAAAAAAAAAAAAAAAAAAAAAAAAAAAAAAAAAAAAAAAAAAAAAAAAAAAAAAAAAAAAAAAAAAAAAAAAAAAAAAAAAAAAAAAAAAAAAAAAAAAAAAAAAAAAAAAAAAAAAAAAAAAAAAAAAAAAAAAAAAAAAAAAAAAAAAAAAAAAAAAAAAAAAAAAAAAAAAAAAAAAAAAAAAAAAAAAAAAAAAAAAAAAAAAAAAAAAAAAAAAAAAAAAAAAAAAAAAAAAAAAAAAAAAAAAAAAAAAAAAAAAAAAAAAAAAAAAAAAAAAAAAAAAAAAAAAAAAAAAAAAAAAAAAAAAAAAAAAAAAAAAAAAAAAAAAAAAAAAAAAAAAAAAAAAAAAAAAAAAAAAAAAAAAAAAAAAAAAAAAAAAAAAAAAAAAAAAAAAAAAAAAAAAAAAAAAAAAAAAAAAAAAAAAAAAAAAAAAAAAAAAAAAAAAAAAAAAAAAAAAAAAAAAAAAAAAAAAAAAAAAAAAAAAAAAAAAAAAAAAAAAAAAAAAAAAAAAAAAAAAAAAAAAAAAAAAAAAAAAAAAAAAAAAAAAAAAAAAAAAAAAAAAAAAAAAAAAAAAAAAAAAAAAAAAAAPZYQCoIJpU58cpW1BXXIzIsACRGK0S0YAM3bSaLEofKdMR04MG1pS64WoUWNEUYE34DVt8/U3UyIpdXLFONPqFEo+A=</c2pa:manifest>
  <rdf:RDF xmlns:dc="http://purl.org/dc/elements/1.1/" xmlns:cc="http://creativecommons.org/ns#" xmlns:rdf="http://www.w3.org/1999/02/22-rdf-syntax-ns#">
   <cc:Work>
    <dc:type rdf:resource="http://purl.org/dc/dcmitype/StillImage"/>
    <dc:date>2026-09-21T19:38:17.763660</dc:date>
    <dc:format>image/svg+xml</dc:format>
    <dc:creator>
     <cc:Agent>
      <dc:title>Matplotlib v3.11.2, https://matplotlib.org/</dc:title>
     </cc:Agent>
    </dc:creator>
   </cc:Work>
  </rdf:RDF>
 </metadata>
 <defs>
  <style type="text/css">*{stroke-linejoin: round; stroke-linecap: butt}</style>
 </defs>
 <g id="figure_1">
  <g id="patch_1">
   <path d="M 0 202.32 
L 502.56 202.32 
L 502.56 -0 
L 0 -0 
z
" style="fill: #ffffff"/>
  </g>
  <g id="axes_1">
   <g id="patch_2">
    <path d="M 32.2085 158.716 
L 501.12 158.716 
L 501.12 1.44 
L 32.2085 1.44 
z
" style="fill: #ffffff"/>
   </g>
   <g id="matplotlib.axis_1">
    <g id="xtick_1">
     <g id="line2d_1">
      <defs>
       <path id="mc95109e6ec" d="M 0 0 
L 0 3 
" style="stroke: #6b5f52; stroke-width: 0.7"/>
      </defs>
      <g>
       <use xlink:href="#mc95109e6ec" x="52.161574" y="158.716" style="fill: #6b5f52; stroke: #6b5f52; stroke-width: 0.7"/>
      </g>
     </g>
     <g id="text_1">
      <!-- 2000 -->
      <g style="fill: #6b5f52" transform="translate(44.209074 173.408) scale(0.08 -0.08)">
       <defs>
        <path id="SourceSans3-Regular-537" d="M 256 0 
L 256 320 
Q 864 922 1296 1386 
Q 1728 1850 1952 2227 
Q 2176 2605 2176 2931 
Q 2176 3283 1984 3507 
Q 1792 3731 1402 3731 
Q 1146 3731 928 3590 
Q 710 3450 531 3238 
L 237 3526 
Q 493 3814 784 3987 
Q 1075 4160 1466 4160 
Q 1843 4160 2118 4009 
Q 2394 3859 2541 3590 
Q 2688 3322 2688 2963 
Q 2688 2566 2467 2176 
Q 2246 1786 1862 1357 
Q 1478 928 979 416 
Q 1146 435 1325 444 
Q 1504 454 1664 454 
L 2893 454 
L 2893 0 
L 256 0 
z
" transform="scale(0.015625)"/>
        <path id="SourceSans3-Regular-535" d="M 1594 -77 
Q 979 -77 630 476 
Q 282 1030 282 2054 
Q 282 3085 630 3622 
Q 979 4160 1594 4160 
Q 2202 4160 2550 3619 
Q 2899 3078 2899 2054 
Q 2899 1030 2550 476 
Q 2202 -77 1594 -77 
z
M 1594 346 
Q 1830 346 2009 525 
Q 2189 704 2288 1081 
Q 2387 1459 2387 2054 
Q 2387 2656 2288 3027 
Q 2189 3398 2009 3568 
Q 1830 3738 1594 3738 
Q 1350 3738 1171 3568 
Q 992 3398 893 3027 
Q 794 2656 794 2054 
Q 794 1459 893 1081 
Q 992 704 1171 525 
Q 1350 346 1594 346 
z
" transform="scale(0.015625)"/>
       </defs>
       <use xlink:href="#SourceSans3-Regular-537"/>
       <use xlink:href="#SourceSans3-Regular-535" transform="translate(49.703125 0)"/>
       <use xlink:href="#SourceSans3-Regular-535" transform="translate(99.40625 0)"/>
       <use xlink:href="#SourceSans3-Regular-535" transform="translate(149.109375 0)"/>
      </g>
     </g>
    </g>
    <g id="xtick_2">
     <g id="line2d_2">
      <g>
       <use xlink:href="#mc95109e6ec" x="132.377803" y="158.716" style="fill: #6b5f52; stroke: #6b5f52; stroke-width: 0.7"/>
      </g>
     </g>
     <g id="text_2">
      <!-- 2005 -->
      <g style="fill: #6b5f52" transform="translate(124.425303 173.408) scale(0.08 -0.08)">
       <defs>
        <path id="SourceSans3-Regular-53a" d="M 1498 -77 
Q 1171 -77 921 3 
Q 672 83 486 211 
Q 301 339 160 480 
L 416 826 
Q 602 646 845 502 
Q 1088 358 1446 358 
Q 1696 358 1897 473 
Q 2099 589 2220 797 
Q 2342 1005 2342 1293 
Q 2342 1715 2105 1952 
Q 1869 2189 1472 2189 
Q 1267 2189 1113 2125 
Q 960 2061 774 1939 
L 493 2118 
L 627 4083 
L 2669 4083 
L 2669 3629 
L 1088 3629 
L 979 2419 
Q 1126 2496 1273 2541 
Q 1421 2586 1606 2586 
Q 1958 2586 2246 2451 
Q 2534 2317 2704 2032 
Q 2874 1747 2874 1306 
Q 2874 864 2678 553 
Q 2483 243 2169 83 
Q 1856 -77 1498 -77 
z
" transform="scale(0.015625)"/>
       </defs>
       <use xlink:href="#SourceSans3-Regular-537"/>
       <use xlink:href="#SourceSans3-Regular-535" transform="translate(49.703125 0)"/>
       <use xlink:href="#SourceSans3-Regular-535" transform="translate(99.40625 0)"/>
       <use xlink:href="#SourceSans3-Regular-53a" transform="translate(149.109375 0)"/>
      </g>
     </g>
    </g>
    <g id="xtick_3">
     <g id="line2d_3">
      <g>
       <use xlink:href="#mc95109e6ec" x="212.550127" y="158.716" style="fill: #6b5f52; stroke: #6b5f52; stroke-width: 0.7"/>
      </g>
     </g>
     <g id="text_3">
      <!-- 2010 -->
      <g style="fill: #6b5f52" transform="translate(204.597627 173.408) scale(0.08 -0.08)">
       <defs>
        <path id="SourceSans3-Regular-536" d="M 506 0 
L 506 435 
L 1440 435 
L 1440 3443 
L 698 3443 
L 698 3782 
Q 973 3834 1184 3907 
Q 1395 3981 1562 4083 
L 1965 4083 
L 1965 435 
L 2810 435 
L 2810 0 
L 506 0 
z
" transform="scale(0.015625)"/>
       </defs>
       <use xlink:href="#SourceSans3-Regular-537"/>
       <use xlink:href="#SourceSans3-Regular-535" transform="translate(49.703125 0)"/>
       <use xlink:href="#SourceSans3-Regular-536" transform="translate(99.40625 0)"/>
       <use xlink:href="#SourceSans3-Regular-535" transform="translate(149.109375 0)"/>
      </g>
     </g>
    </g>
    <g id="xtick_4">
     <g id="line2d_4">
      <g>
       <use xlink:href="#mc95109e6ec" x="292.72245" y="158.716" style="fill: #6b5f52; stroke: #6b5f52; stroke-width: 0.7"/>
      </g>
     </g>
     <g id="text_4">
      <!-- 2015 -->
      <g style="fill: #6b5f52" transform="translate(284.76995 173.408) scale(0.08 -0.08)">
       <use xlink:href="#SourceSans3-Regular-537"/>
       <use xlink:href="#SourceSans3-Regular-535" transform="translate(49.703125 0)"/>
       <use xlink:href="#SourceSans3-Regular-536" transform="translate(99.40625 0)"/>
       <use xlink:href="#SourceSans3-Regular-53a" transform="translate(149.109375 0)"/>
      </g>
     </g>
    </g>
    <g id="xtick_5">
     <g id="line2d_5">
      <g>
       <use xlink:href="#mc95109e6ec" x="372.894774" y="158.716" style="fill: #6b5f52; stroke: #6b5f52; stroke-width: 0.7"/>
      </g>
     </g>
     <g id="text_5">
      <!-- 2020 -->
      <g style="fill: #6b5f52" transform="translate(364.942274 173.408) scale(0.08 -0.08)">
       <use xlink:href="#SourceSans3-Regular-537"/>
       <use xlink:href="#SourceSans3-Regular-535" transform="translate(49.703125 0)"/>
       <use xlink:href="#SourceSans3-Regular-537" transform="translate(99.40625 0)"/>
       <use xlink:href="#SourceSans3-Regular-535" transform="translate(149.109375 0)"/>
      </g>
     </g>
    </g>
    <g id="xtick_6">
     <g id="line2d_6">
      <g>
       <use xlink:href="#mc95109e6ec" x="453.111004" y="158.716" style="fill: #6b5f52; stroke: #6b5f52; stroke-width: 0.7"/>
      </g>
     </g>
     <g id="text_6">
      <!-- 2025 -->
      <g style="fill: #6b5f52" transform="translate(445.158504 173.408) scale(0.08 -0.08)">
       <use xlink:href="#SourceSans3-Regular-537"/>
       <use xlink:href="#SourceSans3-Regular-535" transform="translate(49.703125 0)"/>
       <use xlink:href="#SourceSans3-Regular-537" transform="translate(99.40625 0)"/>
       <use xlink:href="#SourceSans3-Regular-53a" transform="translate(149.109375 0)"/>
      </g>
     </g>
    </g>
   </g>
   <g id="matplotlib.axis_2">
    <g id="ytick_1">
     <g id="line2d_7">
      <path d="M 32.2085 150.321948 
L 501.12 150.321948 
" clip-path="url(#pe5f13c8d89)" style="fill: none; stroke: #e7dad0; stroke-width: 0.5; stroke-linecap: round"/>
     </g>
     <g id="line2d_8">
      <defs>
       <path id="me59997eb28" d="M 0 0 
L -3 0 
" style="stroke: #6b5f52; stroke-width: 0.7"/>
      </defs>
      <g>
       <use xlink:href="#me59997eb28" x="32.2085" y="150.321948" style="fill: #6b5f52; stroke: #6b5f52; stroke-width: 0.7"/>
      </g>
     </g>
     <g id="text_7">
      <!-- −2 -->
      <g style="fill: #6b5f52" transform="translate(17.756 154.417948) scale(0.08 -0.08)">
       <defs>
        <path id="SourceSans3-Regular-873" d="M 218 1914 
L 218 2310 
L 2963 2310 
L 2963 1914 
L 218 1914 
z
" transform="scale(0.015625)"/>
       </defs>
       <use xlink:href="#SourceSans3-Regular-873"/>
       <use xlink:href="#SourceSans3-Regular-537" transform="translate(49.703125 0)"/>
      </g>
     </g>
    </g>
    <g id="ytick_2">
     <g id="line2d_9">
      <path d="M 32.2085 124.691543 
L 501.12 124.691543 
" clip-path="url(#pe5f13c8d89)" style="fill: none; stroke: #e7dad0; stroke-width: 0.5; stroke-linecap: round"/>
     </g>
     <g id="line2d_10">
      <g>
       <use xlink:href="#me59997eb28" x="32.2085" y="124.691543" style="fill: #6b5f52; stroke: #6b5f52; stroke-width: 0.7"/>
      </g>
     </g>
     <g id="text_8">
      <!-- 0 -->
      <g style="fill: #6b5f52" transform="translate(21.73225 128.787543) scale(0.08 -0.08)">
       <use xlink:href="#SourceSans3-Regular-535"/>
      </g>
     </g>
    </g>
    <g id="ytick_3">
     <g id="line2d_11">
      <path d="M 32.2085 99.061138 
L 501.12 99.061138 
" clip-path="url(#pe5f13c8d89)" style="fill: none; stroke: #e7dad0; stroke-width: 0.5; stroke-linecap: round"/>
     </g>
     <g id="line2d_12">
      <g>
       <use xlink:href="#me59997eb28" x="32.2085" y="99.061138" style="fill: #6b5f52; stroke: #6b5f52; stroke-width: 0.7"/>
      </g>
     </g>
     <g id="text_9">
      <!-- 2 -->
      <g style="fill: #6b5f52" transform="translate(21.73225 103.157138) scale(0.08 -0.08)">
       <use xlink:href="#SourceSans3-Regular-537"/>
      </g>
     </g>
    </g>
    <g id="ytick_4">
     <g id="line2d_13">
      <path d="M 32.2085 73.430733 
L 501.12 73.430733 
" clip-path="url(#pe5f13c8d89)" style="fill: none; stroke: #e7dad0; stroke-width: 0.5; stroke-linecap: round"/>
     </g>
     <g id="line2d_14">
      <g>
       <use xlink:href="#me59997eb28" x="32.2085" y="73.430733" style="fill: #6b5f52; stroke: #6b5f52; stroke-width: 0.7"/>
      </g>
     </g>
     <g id="text_10">
      <!-- 4 -->
      <g style="fill: #6b5f52" transform="translate(21.73225 77.526733) scale(0.08 -0.08)">
       <defs>
        <path id="SourceSans3-Regular-539" d="M 1946 0 
L 1946 2733 
Q 1946 2893 1958 3126 
Q 1971 3360 1978 3520 
L 1952 3520 
Q 1875 3373 1792 3235 
Q 1709 3098 1619 2944 
L 666 1549 
L 3002 1549 
L 3002 1126 
L 109 1126 
L 109 1472 
L 1856 4083 
L 2445 4083 
L 2445 0 
L 1946 0 
z
" transform="scale(0.015625)"/>
       </defs>
       <use xlink:href="#SourceSans3-Regular-539"/>
      </g>
     </g>
    </g>
    <g id="ytick_5">
     <g id="line2d_15">
      <path d="M 32.2085 47.800327 
L 501.12 47.800327 
" clip-path="url(#pe5f13c8d89)" style="fill: none; stroke: #e7dad0; stroke-width: 0.5; stroke-linecap: round"/>
     </g>
     <g id="line2d_16">
      <g>
       <use xlink:href="#me59997eb28" x="32.2085" y="47.800327" style="fill: #6b5f52; stroke: #6b5f52; stroke-width: 0.7"/>
      </g>
     </g>
     <g id="text_11">
      <!-- 6 -->
      <g style="fill: #6b5f52" transform="translate(21.73225 51.896327) scale(0.08 -0.08)">
       <defs>
        <path id="SourceSans3-Regular-53b" d="M 1715 -77 
Q 1414 -77 1158 44 
Q 902 166 713 412 
Q 525 659 416 1027 
Q 307 1395 307 1888 
Q 307 2502 435 2934 
Q 563 3366 780 3635 
Q 998 3904 1276 4032 
Q 1555 4160 1862 4160 
Q 2195 4160 2435 4035 
Q 2675 3910 2848 3725 
L 2554 3398 
Q 2432 3546 2253 3632 
Q 2074 3718 1882 3718 
Q 1594 3718 1347 3545 
Q 1101 3373 953 2973 
Q 806 2573 806 1888 
Q 806 1382 912 1036 
Q 1018 691 1222 515 
Q 1427 339 1715 339 
Q 1914 339 2077 451 
Q 2240 563 2333 764 
Q 2426 966 2426 1235 
Q 2426 1498 2342 1693 
Q 2259 1888 2092 1993 
Q 1926 2099 1670 2099 
Q 1472 2099 1238 1968 
Q 1005 1837 794 1523 
L 774 1939 
Q 973 2195 1235 2345 
Q 1498 2496 1760 2496 
Q 2112 2496 2374 2355 
Q 2637 2214 2781 1932 
Q 2925 1651 2925 1235 
Q 2925 845 2758 550 
Q 2592 256 2317 89 
Q 2042 -77 1715 -77 
z
" transform="scale(0.015625)"/>
       </defs>
       <use xlink:href="#SourceSans3-Regular-53b"/>
      </g>
     </g>
    </g>
    <g id="ytick_6">
     <g id="line2d_17">
      <path d="M 32.2085 22.169922 
L 501.12 22.169922 
" clip-path="url(#pe5f13c8d89)" style="fill: none; stroke: #e7dad0; stroke-width: 0.5; stroke-linecap: round"/>
     </g>
     <g id="line2d_18">
      <g>
       <use xlink:href="#me59997eb28" x="32.2085" y="22.169922" style="fill: #6b5f52; stroke: #6b5f52; stroke-width: 0.7"/>
      </g>
     </g>
     <g id="text_12">
      <!-- 8 -->
      <g style="fill: #6b5f52" transform="translate(21.73225 26.265922) scale(0.08 -0.08)">
       <defs>
        <path id="SourceSans3-Regular-53d" d="M 1600 -77 
Q 1216 -77 912 67 
Q 608 211 435 467 
Q 262 723 262 1043 
Q 262 1312 374 1520 
Q 486 1728 662 1885 
Q 838 2042 1030 2144 
L 1030 2170 
Q 806 2330 633 2560 
Q 461 2790 461 3110 
Q 461 3424 614 3661 
Q 768 3898 1027 4029 
Q 1286 4160 1619 4160 
Q 2150 4160 2460 3856 
Q 2771 3552 2771 3072 
Q 2771 2861 2681 2672 
Q 2592 2483 2464 2332 
Q 2336 2182 2208 2086 
L 2208 2061 
Q 2387 1958 2550 1817 
Q 2714 1677 2816 1481 
Q 2918 1286 2918 1011 
Q 2918 710 2755 464 
Q 2592 218 2294 70 
Q 1997 -77 1600 -77 
z
M 1888 2227 
Q 2099 2413 2208 2617 
Q 2317 2822 2317 3046 
Q 2317 3245 2233 3408 
Q 2150 3571 1990 3670 
Q 1830 3770 1606 3770 
Q 1325 3770 1136 3587 
Q 947 3405 947 3110 
Q 947 2867 1078 2707 
Q 1210 2547 1424 2435 
Q 1638 2323 1888 2227 
z
M 1613 314 
Q 1850 314 2029 403 
Q 2208 493 2310 656 
Q 2413 819 2413 1030 
Q 2413 1293 2259 1459 
Q 2106 1626 1856 1744 
Q 1606 1862 1306 1984 
Q 1062 1824 899 1600 
Q 736 1376 736 1094 
Q 736 870 851 694 
Q 966 518 1164 416 
Q 1363 314 1613 314 
z
" transform="scale(0.015625)"/>
       </defs>
       <use xlink:href="#SourceSans3-Regular-53d"/>
      </g>
     </g>
    </g>
    <g id="text_13">
     <!-- % -->
     <g style="fill: #6b5f52" transform="translate(10.656 83.786281) rotate(-90) scale(0.09 -0.09)">
      <defs>
       <path id="SourceSans3-Regular-85c" d="M 1178 1625 
Q 890 1625 675 1782 
Q 461 1939 342 2236 
Q 224 2534 224 2956 
Q 224 3590 486 3932 
Q 749 4275 1178 4275 
Q 1606 4275 1868 3932 
Q 2131 3590 2131 2956 
Q 2131 2534 2012 2236 
Q 1894 1939 1680 1782 
Q 1466 1625 1178 1625 
z
M 1178 1952 
Q 1427 1952 1577 2204 
Q 1728 2457 1728 2956 
Q 1728 3462 1577 3705 
Q 1427 3948 1178 3948 
Q 934 3948 777 3705 
Q 621 3462 621 2956 
Q 621 2457 777 2204 
Q 934 1952 1178 1952 
z
M 1299 -77 
L 3616 4275 
L 3974 4275 
L 1658 -77 
L 1299 -77 
z
M 4103 -77 
Q 3815 -77 3600 80 
Q 3386 237 3267 534 
Q 3149 832 3149 1254 
Q 3149 1888 3411 2230 
Q 3674 2573 4103 2573 
Q 4531 2573 4793 2230 
Q 5056 1888 5056 1254 
Q 5056 832 4937 534 
Q 4819 237 4605 80 
Q 4391 -77 4103 -77 
z
M 4103 250 
Q 4352 250 4502 502 
Q 4653 755 4653 1254 
Q 4653 1760 4502 2003 
Q 4352 2246 4103 2246 
Q 3859 2246 3702 2003 
Q 3546 1760 3546 1254 
Q 3546 755 3702 502 
Q 3859 250 4103 250 
z
" transform="scale(0.015625)"/>
      </defs>
      <use xlink:href="#SourceSans3-Regular-85c"/>
     </g>
    </g>
   </g>
   <g id="line2d_19">
    <path d="M 32.2085 124.691543 
L 501.12 124.691543 
" clip-path="url(#pe5f13c8d89)" style="fill: none; stroke: #2a231d; stroke-width: 0.7; stroke-linecap: round"/>
   </g>
   <g id="line2d_20">
    <path d="M 53.522659 89.592084 
L 56.157018 76.537448 
L 57.474197 85.366914 
L 58.835283 83.824772 
L 60.152462 76.885131 
L 61.513548 77.79728 
L 62.874633 80.977207 
L 64.191813 80.422231 
L 66.870078 80.527446 
L 68.231163 81.288896 
L 69.592249 76.862292 
L 70.821616 79.408142 
L 72.182702 87.263965 
L 74.860966 78.362531 
L 76.178146 83.064435 
L 77.539231 89.835379 
L 78.900317 89.835379 
L 80.217496 90.753758 
L 81.578582 97.440825 
L 82.895761 100.400809 
L 84.256847 104.805884 
L 85.617932 110.053962 
L 86.8473 110.112246 
L 88.208385 105.781483 
L 89.525565 103.683014 
L 90.88665 109.546959 
L 92.203829 111.012394 
L 93.564915 105.919979 
L 94.926 101.588079 
L 96.24318 105.28546 
L 97.604265 98.729399 
L 100.28253 94.23096 
L 101.643616 91.405303 
L 102.872983 86.490995 
L 104.234069 85.987911 
L 105.551248 96.181637 
L 106.912334 98.31988 
L 108.229513 97.622188 
L 109.590598 97.652248 
L 110.951684 97.032832 
L 112.268863 94.954609 
L 114.947128 102.072322 
L 116.308214 100.60548 
L 117.669299 100.006233 
L 118.942573 102.994586 
L 120.303658 102.428433 
L 121.620838 95.40762 
L 122.981923 85.582478 
L 124.299103 82.834594 
L 125.660188 86.364401 
L 127.021273 90.675025 
L 128.338453 92.169161 
L 129.699538 83.821438 
L 131.016718 79.543133 
L 133.738889 86.633436 
L 134.968256 86.14958 
L 136.329342 84.344854 
L 137.646521 79.702002 
L 139.007607 88.773736 
L 140.324786 92.265095 
L 141.685871 84.09428 
L 143.046957 78.029328 
L 144.364136 64.630825 
L 145.725222 68.973271 
L 147.042401 80.408644 
L 148.403487 80.919175 
L 149.764572 73.618895 
L 150.99394 78.588885 
L 152.355025 81.598518 
L 153.672205 79.252233 
L 155.03329 71.294866 
L 156.35047 69.345681 
L 157.711555 71.568134 
L 159.07264 75.753651 
L 160.38982 98.261799 
L 161.750905 107.964873 
L 163.068085 99.39838 
L 164.42917 92.132593 
L 165.790256 98.091758 
L 168.380709 89.08093 
L 169.697888 91.709091 
L 171.058974 90.207573 
L 172.376153 90.256607 
L 173.737239 94.470336 
L 175.098324 99.444526 
L 179.093768 69.506673 
L 180.454854 72.389259 
L 181.815939 69.838708 
L 183.089213 73.09042 
L 185.767478 74.239503 
L 187.128563 71.181113 
L 188.445743 60.336286 
L 189.806828 52.924833 
L 191.167913 55.850131 
L 192.485093 61.423818 
L 193.846178 77.84959 
L 195.163358 110.984727 
L 196.524443 123.520068 
L 197.885529 124.309054 
L 199.114896 121.664707 
L 200.475982 129.606894 
L 201.793161 134.134883 
L 203.154247 141.113403 
L 204.471426 142.975967 
L 205.832512 151.567091 
L 207.193597 143.713771 
L 208.510776 141.174533 
L 209.871862 127.034781 
L 211.189041 101.133409 
L 212.550127 89.817133 
L 213.911212 91.042555 
L 215.14058 97.224312 
L 216.501665 95.037684 
L 217.818845 96.031019 
L 219.17993 98.792197 
L 220.49711 111.192663 
L 221.858195 108.862297 
L 223.219281 109.978351 
L 224.53646 110.035018 
L 225.897545 109.669722 
L 227.214725 110.041704 
L 228.57581 105.523543 
L 229.936896 103.779095 
L 231.166263 97.682419 
L 232.527349 90.326254 
L 233.844528 84.148973 
L 235.205614 78.958624 
L 236.522793 79.084438 
L 237.883879 78.188813 
L 239.244964 76.362746 
L 240.562144 75.117766 
L 241.923229 79.515392 
L 243.240408 81.191907 
L 244.601494 86.727545 
L 245.962579 87.204298 
L 247.235853 87.897831 
L 248.596938 90.713338 
L 249.914118 95.181466 
L 251.275203 102.851186 
L 252.592383 103.367126 
L 253.953468 106.641962 
L 256.631733 99.17286 
L 257.992819 96.980672 
L 259.309998 102.083811 
L 260.671083 102.379989 
L 262.032169 104.253029 
L 263.261536 99.344053 
L 264.622622 105.803265 
L 265.939801 111.067889 
L 267.300887 107.237685 
L 268.618066 102.20834 
L 269.979152 99.565011 
L 271.340237 105.233355 
L 272.657417 109.506486 
L 274.018502 112.342651 
L 276.696767 105.446497 
L 278.057852 104.457013 
L 279.28722 110.257149 
L 280.648305 105.312357 
L 281.965485 99.665274 
L 283.32657 97.432178 
L 284.64375 98.134069 
L 286.004835 99.159448 
L 287.365921 102.91068 
L 288.6831 103.444979 
L 290.044186 103.362686 
L 291.361365 107.745294 
L 292.72245 114.996929 
L 294.083536 125.83656 
L 295.312903 125.013587 
L 296.673989 125.635221 
L 297.991168 127.2484 
L 300.669433 123.10539 
L 302.030519 122.518472 
L 303.391604 122.191563 
L 304.708784 125.154553 
L 306.069869 122.505597 
L 307.387049 118.260906 
L 308.748134 115.342599 
L 310.109219 107.095157 
L 311.382493 111.648233 
L 312.743578 113.766119 
L 314.060758 110.273025 
L 315.421843 111.628718 
L 316.739023 111.910602 
L 318.100108 114.091591 
L 319.461194 111.070591 
L 320.778373 105.932859 
L 322.139459 103.726032 
L 323.456638 103.001337 
L 324.817724 98.10484 
L 326.178809 92.652996 
L 327.408176 89.604054 
L 328.769262 94.183512 
L 330.086441 96.502072 
L 331.447527 100.664605 
L 332.764706 103.758064 
L 334.125792 102.547149 
L 335.486877 99.843196 
L 336.804057 96.075659 
L 338.165142 98.534065 
L 339.482322 96.464997 
L 340.843407 97.663224 
L 342.204492 98.157569 
L 344.794945 94.451363 
L 346.112125 93.130981 
L 347.47321 88.796011 
L 350.151475 86.89291 
L 351.512561 90.101003 
L 352.82974 95.511683 
L 354.190826 92.36558 
L 355.508005 96.79796 
L 356.869091 100.212471 
L 358.230176 104.812151 
L 359.459544 105.210702 
L 360.820629 100.822937 
L 362.137808 99.106763 
L 363.498894 101.749403 
L 364.816073 103.565878 
L 366.177159 101.477255 
L 367.538244 102.267759 
L 368.855424 102.760829 
L 370.216509 102.084975 
L 371.533689 98.404 
L 372.894774 95.407143 
L 374.25586 92.82562 
L 375.529133 94.769665 
L 376.890218 104.964756 
L 378.207398 120.474102 
L 379.568483 123.180293 
L 380.885663 116.416343 
L 383.607834 107.908172 
L 384.925013 107.117737 
L 386.286099 109.543126 
L 387.603278 109.639629 
L 388.964364 107.237167 
L 390.325449 106.75321 
L 391.554817 103.210506 
L 392.915902 91.118756 
L 394.233081 71.384211 
L 395.594167 60.708997 
L 396.911346 55.599001 
L 398.272432 55.931891 
L 399.633517 57.395434 
L 400.950697 55.61313 
L 402.311782 44.957032 
L 403.628962 37.432792 
L 404.990047 34.518615 
L 407.5805 23.822264 
L 408.941586 15.218244 
L 410.258765 18.855535 
L 411.61985 14.717734 
L 412.93703 8.588909 
L 414.298115 15.444315 
L 415.659201 18.803464 
L 416.97638 19.585485 
L 418.337466 25.432322 
L 421.015731 41.977082 
L 422.376816 42.544211 
L 423.606184 47.343939 
L 424.967269 60.80809 
L 426.284449 61.508488 
L 427.645534 72.82061 
L 428.962713 86.64093 
L 430.323799 83.967646 
L 431.684884 77.722385 
L 433.002064 77.279162 
L 434.363149 83.155618 
L 435.680329 84.486783 
L 437.041414 81.73341 
L 438.4025 85.081228 
L 439.675773 84.283016 
L 441.036859 80.128149 
L 442.354038 81.666244 
L 443.715123 82.798273 
L 445.032303 86.612487 
L 446.393388 87.594694 
L 447.754474 92.259722 
L 449.071653 93.414336 
L 451.749918 89.457676 
L 453.111004 87.680505 
L 454.472089 86.239744 
L 455.701457 88.532822 
L 457.062542 94.053915 
L 458.379722 95.071908 
L 459.740807 94.513067 
L 461.057986 90.485038 
L 462.419072 90.027671 
L 463.780157 87.320179 
L 465.097337 86.08348 
M 467.775602 89.640882 
L 469.136687 90.384214 
L 470.497773 94.108943 
L 471.72714 93.754196 
L 473.088226 82.959855 
L 474.405405 75.854793 
L 475.766491 70.243924 
L 477.08367 79.435615 
L 478.444755 81.570628 
L 479.805841 81.164094 
L 479.805841 81.164094 
" clip-path="url(#pe5f13c8d89)" style="fill: none; stroke: #6b5f52; stroke-width: 0.9; stroke-linecap: round"/>
   </g>
   <g id="line2d_21">
    <path d="M 53.522659 96.63731 
L 54.795933 91.772646 
L 56.157018 87.131723 
L 57.474197 94.563128 
L 58.835283 94.332984 
L 60.152462 90.292147 
L 61.513548 90.490147 
L 62.874633 92.967931 
L 64.191813 92.037174 
L 65.552898 92.463152 
L 66.870078 91.803532 
L 68.231163 92.848592 
L 69.592249 90.072001 
L 70.821616 92.176847 
L 72.182702 97.668124 
L 73.499881 94.278033 
L 74.860966 91.914751 
L 76.178146 94.040979 
L 77.539231 97.757415 
L 78.900317 97.824927 
L 80.217496 107.863953 
L 81.578582 105.060169 
L 82.895761 107.75538 
L 84.256847 111.080836 
L 85.617932 116.157424 
L 86.8473 115.982779 
L 89.525565 109.470859 
L 90.88665 112.026788 
L 92.203829 112.693942 
L 93.564915 109.413726 
L 94.926 106.712502 
L 96.24318 99.922106 
L 97.604265 102.131001 
L 98.921445 99.958394 
L 101.643616 94.620473 
L 102.872983 91.312789 
L 104.234069 91.504595 
L 105.551248 99.206 
L 106.912334 101.562569 
L 108.229513 101.77633 
L 109.590598 100.820202 
L 112.268863 97.249853 
L 113.629949 99.46851 
L 114.947128 99.110134 
L 116.308214 97.486439 
L 117.669299 96.339105 
L 118.942573 99.053203 
L 120.303658 100.388412 
L 121.620838 95.739125 
L 122.981923 89.96827 
L 124.299103 87.643933 
L 125.660188 90.288646 
L 127.021273 94.048242 
L 128.338453 95.550836 
L 129.699538 90.090349 
L 131.016718 86.686442 
L 132.377803 88.889514 
L 133.738889 92.243058 
L 134.968256 91.388255 
L 136.329342 89.481653 
L 137.646521 88.23865 
L 139.007607 91.769718 
L 140.324786 94.688645 
L 143.046957 85.723042 
L 144.364136 75.609048 
L 145.725222 79.180115 
L 147.042401 87.035242 
L 148.403487 87.73727 
L 149.764572 83.081377 
L 150.99394 85.960985 
L 152.355025 87.352255 
L 153.672205 84.928185 
L 155.03329 82.125401 
L 156.35047 79.68932 
L 159.07264 81.941532 
L 160.38982 98.035577 
L 161.750905 103.200831 
L 163.068085 100.026467 
L 164.42917 95.38635 
L 165.790256 97.353344 
L 167.019623 94.073291 
L 168.380709 91.821848 
L 169.697888 94.822152 
L 171.058974 94.537589 
L 172.376153 94.990592 
L 173.737239 97.462749 
L 175.098324 100.679504 
L 176.415503 92.209015 
L 179.093768 78.561593 
L 180.454854 80.201847 
L 181.815939 81.281238 
L 183.089213 82.748375 
L 184.450298 83.796405 
L 185.767478 84.457975 
L 187.128563 82.630204 
L 188.445743 75.847181 
L 189.806828 71.692286 
L 191.167913 73.678998 
L 192.485093 77.687451 
L 193.846178 90.451332 
L 195.163358 112.837105 
L 196.524443 123.03109 
L 197.885529 126.115358 
L 199.114896 126.373519 
L 200.475982 131.429157 
L 201.793161 131.965119 
L 203.154247 136.086986 
L 204.471426 137.745425 
L 205.832512 143.478748 
L 207.193597 138.789801 
L 208.510776 137.798275 
L 209.871862 124.520009 
L 211.189041 105.973504 
L 212.550127 97.91138 
L 213.911212 95.194527 
L 215.14058 97.570343 
L 216.501665 94.284706 
L 217.818845 95.445682 
L 219.17993 96.389558 
L 220.49711 104.671392 
L 221.858195 103.708058 
L 223.219281 105.694349 
L 225.897545 107.283117 
L 227.214725 107.939551 
L 228.57581 105.754926 
L 229.936896 104.701556 
L 231.166263 101.047101 
L 232.527349 97.644467 
L 233.844528 92.806082 
L 235.205614 89.241526 
L 236.522793 88.956966 
L 237.883879 87.838867 
L 239.244964 86.544148 
L 240.562144 86.002057 
L 241.923229 90.172099 
L 243.240408 90.099981 
L 244.601494 92.312333 
L 245.962579 91.765284 
L 247.235853 92.484965 
L 248.596938 95.241855 
L 249.914118 99.063076 
L 251.275203 104.482731 
L 252.592383 104.878988 
L 253.953468 106.621773 
L 255.314554 105.316655 
L 256.631733 103.188005 
L 257.992819 99.357457 
L 259.309998 102.917209 
L 260.671083 103.874748 
L 262.032169 105.842847 
L 263.261536 104.128171 
L 264.622622 108.32662 
L 265.939801 111.34803 
L 267.300887 108.941273 
L 268.618066 105.398174 
L 269.979152 104.249849 
L 271.340237 106.688896 
L 272.657417 110.065739 
L 274.018502 112.182535 
L 275.335681 109.371347 
L 276.696767 106.902758 
L 278.057852 106.680988 
L 279.28722 110.671942 
L 281.965485 103.250251 
L 283.32657 102.057764 
L 284.64375 103.527766 
L 286.004835 103.299873 
L 287.365921 105.388723 
L 288.6831 105.50399 
L 290.044186 107.609585 
L 291.361365 110.777316 
L 292.72245 115.307498 
L 294.083536 124.16097 
L 295.312903 122.50397 
L 296.673989 122.136842 
L 297.991168 123.277718 
L 299.352254 122.317063 
L 300.669433 121.225945 
L 302.030519 121.875622 
L 303.391604 121.625233 
L 304.708784 123.849589 
L 306.069869 123.467714 
L 307.387049 121.438051 
L 308.748134 120.257948 
L 310.109219 113.527597 
L 311.382493 116.485578 
L 312.743578 115.906588 
L 314.060758 112.825859 
L 315.421843 113.815468 
L 316.739023 114.059956 
L 318.100108 115.014985 
L 319.461194 113.308946 
L 320.778373 109.05988 
L 322.139459 106.404207 
L 323.456638 106.783527 
L 324.817724 103.454726 
L 326.178809 98.994365 
L 327.408176 96.534789 
L 328.769262 100.26114 
L 330.086441 102.041016 
L 331.447527 104.728379 
L 332.764706 105.91025 
L 334.125792 105.652871 
L 335.486877 104.547214 
L 336.804057 102.169538 
L 338.165142 103.135851 
L 339.482322 101.704749 
L 340.843407 102.054642 
L 342.204492 102.166909 
L 343.43386 101.142228 
L 344.794945 99.083026 
L 346.112125 98.463588 
L 347.47321 95.649647 
L 348.79039 95.622719 
L 350.151475 94.72182 
L 351.512561 96.749131 
L 352.82974 98.933496 
L 354.190826 98.380676 
L 355.508005 99.805801 
L 356.869091 100.795152 
L 358.230176 106.342322 
L 359.459544 106.748036 
L 360.820629 105.18927 
L 362.137808 104.618598 
L 363.498894 105.910177 
L 364.816073 106.416229 
L 366.177159 106.059142 
L 367.538244 106.360467 
L 368.855424 108.237413 
L 370.216509 108.178362 
L 371.533689 107.284944 
L 372.894774 104.651606 
L 374.25586 101.694891 
L 375.529133 103.04542 
L 376.890218 109.746338 
L 378.207398 118.765008 
L 379.568483 118.410006 
L 380.885663 114.957914 
L 382.246748 112.868442 
L 383.607834 109.857702 
L 384.925013 108.334812 
L 386.286099 109.473667 
L 387.603278 109.489321 
L 388.964364 107.589372 
L 390.325449 104.369225 
L 391.554817 101.076561 
L 392.915902 90.487681 
L 394.233081 78.040543 
L 395.594167 72.502098 
L 396.911346 69.507636 
L 398.272432 67.366372 
L 399.633517 65.986257 
L 400.950697 63.98044 
L 403.628962 48.694949 
L 404.990047 45.980964 
L 406.351133 44.309037 
L 407.5805 40.809123 
L 408.941586 35.928183 
L 410.258765 39.025049 
L 411.61985 37.618061 
L 412.93703 31.864984 
L 414.298115 38.186345 
L 415.659201 39.602729 
L 416.97638 39.240554 
L 418.337466 41.8848 
L 419.654645 47.40955 
L 421.015731 53.950976 
L 422.376816 54.108808 
L 423.606184 58.080634 
L 424.967269 67.942325 
L 426.284449 67.33053 
L 427.645534 73.386361 
L 428.962713 82.599737 
L 430.323799 81.003977 
L 433.002064 80.493283 
L 434.363149 85.947832 
L 435.680329 89.256355 
L 437.041414 89.228471 
L 438.4025 90.106497 
L 439.675773 90.025684 
L 441.036859 87.169409 
L 442.354038 88.473807 
L 443.715123 90.581666 
L 445.032303 92.033621 
L 446.393388 91.444079 
L 447.754474 93.768524 
L 449.071653 95.719363 
L 450.432739 92.939411 
L 451.749918 91.528318 
L 453.111004 89.730457 
L 454.472089 91.277446 
L 455.701457 89.956133 
L 457.062542 94.454923 
L 458.379722 95.505868 
L 459.740807 93.190672 
L 461.057986 91.455149 
L 462.419072 91.300927 
L 463.780157 89.480225 
L 465.097337 88.969904 
L 466.458422 89.929274 
L 467.775602 88.550239 
L 469.136687 87.80832 
L 471.72714 87.870518 
L 473.088226 79.288192 
L 474.405405 75.970408 
L 475.766491 72.002991 
L 477.08367 77.057812 
L 478.444755 77.260355 
L 478.444755 77.260355 
" clip-path="url(#pe5f13c8d89)" style="fill: none; stroke: #b0472a; stroke-width: 1.3; stroke-linecap: round"/>
   </g>
   <g id="line2d_22">
    <path d="M 245.962579 99.061138 
L 479.805841 99.061138 
L 479.805841 99.061138 
" clip-path="url(#pe5f13c8d89)" style="fill: none; stroke-dasharray: 3.6,1.8; stroke-dashoffset: 0; stroke: #2a231d; stroke-width: 0.9"/>
   </g>
   <g id="patch_3">
    <path d="M 32.2085 158.716 
L 32.2085 1.44 
" style="fill: none; stroke: #6b5f52; stroke-width: 0.7; stroke-linejoin: miter; stroke-linecap: square"/>
   </g>
   <g id="patch_4">
    <path d="M 32.2085 158.716 
L 501.12 158.716 
" style="fill: none; stroke: #6b5f52; stroke-width: 0.7; stroke-linejoin: miter; stroke-linecap: square"/>
   </g>
  </g>
  <g id="legend_1">
   <g id="line2d_23">
    <path d="M 192.880625 193.12 
L 199.280625 193.12 
L 205.680625 193.12 
" style="fill: none; stroke: #6b5f52; stroke-width: 0.9; stroke-linecap: round"/>
   </g>
   <g id="text_14">
    <!-- IPC -->
    <g style="fill: #2a231d" transform="translate(210.480625 195.92) scale(0.08 -0.08)">
     <defs>
      <path id="SourceSans3-Regular-a" d="M 576 0 
L 576 4198 
L 1107 4198 
L 1107 0 
L 576 0 
z
" transform="scale(0.015625)"/>
      <path id="SourceSans3-Regular-11" d="M 576 0 
L 576 4198 
L 1773 4198 
Q 2246 4198 2598 4080 
Q 2950 3962 3148 3693 
Q 3347 3424 3347 2963 
Q 3347 2522 3152 2237 
Q 2957 1952 2608 1808 
Q 2259 1664 1798 1664 
L 1107 1664 
L 1107 0 
L 576 0 
z
M 1107 2099 
L 1734 2099 
Q 2285 2099 2550 2310 
Q 2816 2522 2816 2963 
Q 2816 3418 2537 3594 
Q 2259 3770 1709 3770 
L 1107 3770 
L 1107 2099 
z
" transform="scale(0.015625)"/>
      <path id="SourceSans3-Regular-4" d="M 2170 -77 
Q 1645 -77 1225 182 
Q 806 442 569 928 
Q 333 1414 333 2099 
Q 333 2605 470 3008 
Q 608 3411 864 3696 
Q 1120 3981 1456 4128 
Q 1792 4275 2195 4275 
Q 2573 4275 2870 4121 
Q 3168 3968 3347 3757 
L 3059 3430 
Q 2893 3610 2678 3709 
Q 2464 3808 2202 3808 
Q 1811 3808 1513 3600 
Q 1216 3392 1049 3011 
Q 883 2630 883 2112 
Q 883 1581 1043 1197 
Q 1203 813 1504 605 
Q 1805 397 2208 397 
Q 2502 397 2736 509 
Q 2970 621 3162 838 
L 3443 525 
Q 3194 237 2886 80 
Q 2579 -77 2170 -77 
z
" transform="scale(0.015625)"/>
     </defs>
     <use xlink:href="#SourceSans3-Regular-a"/>
     <use xlink:href="#SourceSans3-Regular-11" transform="translate(26.296875 0)"/>
     <use xlink:href="#SourceSans3-Regular-4" transform="translate(82.890625 0)"/>
    </g>
   </g>
   <g id="line2d_24">
    <path d="M 232.879375 193.12 
L 239.279375 193.12 
L 245.679375 193.12 
" style="fill: none; stroke: #b0472a; stroke-width: 1.3; stroke-linecap: round"/>
   </g>
   <g id="text_15">
    <!-- PCE -->
    <g style="fill: #2a231d" transform="translate(250.479375 195.92) scale(0.08 -0.08)">
     <defs>
      <path id="SourceSans3-Regular-6" d="M 576 0 
L 576 4198 
L 2995 4198 
L 2995 3750 
L 1107 3750 
L 1107 2432 
L 2701 2432 
L 2701 1978 
L 1107 1978 
L 1107 454 
L 3059 454 
L 3059 0 
L 576 0 
z
" transform="scale(0.015625)"/>
     </defs>
     <use xlink:href="#SourceSans3-Regular-11"/>
     <use xlink:href="#SourceSans3-Regular-4" transform="translate(56.59375 0)"/>
     <use xlink:href="#SourceSans3-Regular-6" transform="translate(113.6875 0)"/>
    </g>
   </g>
   <g id="line2d_25">
    <path d="M 274.990625 193.12 
L 281.390625 193.12 
L 287.790625 193.12 
" style="fill: none; stroke-dasharray: 3.6,1.8; stroke-dashoffset: 0; stroke: #2a231d; stroke-width: 0.9"/>
   </g>
   <g id="text_16">
    <!-- meta -->
    <g style="fill: #2a231d" transform="translate(292.590625 195.92) scale(0.08 -0.08)">
     <defs>
      <path id="SourceSans3-Regular-28" d="M 525 0 
L 525 3110 
L 960 3110 
L 1005 2662 
L 1024 2662 
Q 1229 2880 1469 3033 
Q 1709 3187 1990 3187 
Q 2349 3187 2550 3027 
Q 2752 2867 2848 2592 
Q 3091 2861 3340 3024 
Q 3590 3187 3872 3187 
Q 4358 3187 4588 2876 
Q 4819 2566 4819 1971 
L 4819 0 
L 4294 0 
L 4294 1901 
Q 4294 2342 4153 2537 
Q 4013 2733 3718 2733 
Q 3533 2733 3344 2614 
Q 3155 2496 2938 2253 
L 2938 0 
L 2413 0 
L 2413 1901 
Q 2413 2342 2272 2537 
Q 2131 2733 1830 2733 
Q 1478 2733 1050 2253 
L 1050 0 
L 525 0 
z
" transform="scale(0.015625)"/>
      <path id="SourceSans3-Regular-20" d="M 1786 -77 
Q 1370 -77 1027 118 
Q 685 314 486 675 
Q 288 1037 288 1555 
Q 288 2061 493 2425 
Q 698 2790 1018 2988 
Q 1338 3187 1696 3187 
Q 2093 3187 2371 3004 
Q 2650 2822 2790 2496 
Q 2931 2170 2931 1728 
Q 2931 1645 2928 1568 
Q 2925 1491 2906 1414 
L 666 1414 
L 666 1830 
L 2458 1830 
Q 2458 2278 2262 2518 
Q 2067 2758 1702 2758 
Q 1491 2758 1286 2640 
Q 1082 2522 950 2259 
Q 819 1997 819 1562 
Q 819 1165 956 896 
Q 1094 627 1331 489 
Q 1568 352 1850 352 
Q 2074 352 2269 416 
Q 2464 480 2624 589 
L 2816 243 
Q 2611 102 2358 12 
Q 2106 -77 1786 -77 
z
" transform="scale(0.015625)"/>
      <path id="SourceSans3-Regular-2f" d="M 1504 -58 
Q 1011 -58 812 230 
Q 614 518 614 979 
L 614 2682 
L 154 2682 
L 154 3078 
L 640 3110 
L 704 4109 
L 1146 4109 
L 1146 3110 
L 1990 3110 
L 1990 2682 
L 1146 2682 
L 1146 973 
Q 1146 691 1251 531 
Q 1357 371 1626 371 
Q 1709 371 1798 387 
Q 1888 403 1978 448 
L 2093 77 
Q 1971 19 1817 -19 
Q 1664 -58 1504 -58 
z
" transform="scale(0.015625)"/>
      <path id="SourceSans3-Regular-1c" d="M 1242 -77 
Q 986 -77 778 28 
Q 570 134 448 329 
Q 326 525 326 806 
Q 326 1331 787 1600 
Q 1248 1869 2246 1978 
Q 2240 2170 2185 2349 
Q 2131 2528 1990 2637 
Q 1850 2746 1600 2746 
Q 1331 2746 1094 2646 
Q 858 2547 672 2426 
L 467 2784 
Q 608 2880 800 2973 
Q 992 3066 1216 3126 
Q 1440 3187 1690 3187 
Q 2067 3187 2307 3030 
Q 2547 2874 2659 2586 
Q 2771 2298 2771 1907 
L 2771 0 
L 2336 0 
L 2291 371 
L 2272 371 
Q 2048 186 1792 54 
Q 1536 -77 1242 -77 
z
M 1389 358 
Q 1619 358 1820 460 
Q 2022 563 2246 762 
L 2246 1600 
Q 1722 1536 1418 1437 
Q 1114 1338 979 1190 
Q 845 1043 845 838 
Q 845 582 1005 470 
Q 1165 358 1389 358 
z
" transform="scale(0.015625)"/>
     </defs>
     <use xlink:href="#SourceSans3-Regular-28"/>
     <use xlink:href="#SourceSans3-Regular-20" transform="translate(82.90625 0)"/>
     <use xlink:href="#SourceSans3-Regular-2f" transform="translate(131.5 0)"/>
     <use xlink:href="#SourceSans3-Regular-1c" transform="translate(163.203125 0)"/>
    </g>
   </g>
  </g>
 </g>
 <defs>
  <clipPath id="pe5f13c8d89">
   <rect x="32.2085" y="1.44" width="468.9115" height="157.276"/>
  </clipPath>
 </defs>
</svg>
